<svg width="309" height="50" viewBox="0 0 309 50" fill="none" xmlns="http://www.w3.org/2000/svg">
<path d="M54.5881 23.1971C54.4064 22.8795 54.1858 22.6008 53.9262 22.3804C53.5369 22.0109 53.0631 21.7517 52.5634 21.6026C52.1611 21.4924 51.7328 21.434 51.2915 21.4729L42.3361 6.12364C42.6476 5.82547 42.9072 5.456 43.0889 5.06708C43.5691 4.04942 43.5496 2.80488 42.9201 1.74832C42.7384 1.4307 42.5178 1.17142 42.2582 0.931591C41.8689 0.562119 41.3951 0.322287 40.8954 0.153756C39.9934 -0.124969 38.9616 -0.0342213 38.079 0.503782C37.6183 0.782506 37.2354 1.15198 36.9563 1.57979C36.7162 1.92981 36.5345 2.35762 36.4437 2.78543L19.357 2.95396C19.2856 2.5456 19.1364 2.13724 18.9157 1.74832C18.734 1.4307 18.5134 1.17142 18.2538 0.931591C17.8514 0.562119 17.3907 0.322287 16.891 0.153756C15.9695 -0.124969 14.9572 -0.0342213 14.0746 0.503782C13.6138 0.782506 13.231 1.15198 12.9519 1.57979C12.6599 2.0076 12.4522 2.52615 12.3808 3.04471C12.3095 3.51141 12.3224 3.99108 12.4522 4.45778C12.5236 4.7754 12.6534 5.08653 12.8416 5.3847C12.9324 5.55323 13.0428 5.70232 13.1726 5.8514C13.231 5.9227 13.3023 6.00049 13.3737 6.07179L4.65842 21.6415C4.61948 21.6415 4.58703 21.622 4.54809 21.6026C3.64606 21.3239 2.61424 21.4146 1.73168 21.9526C1.27093 22.2313 0.888052 22.6008 0.609007 23.0286C0.316982 23.4564 0.10932 23.975 0.0379361 24.4935C-0.0334477 24.9602 -0.00100052 25.4399 0.10932 25.9066C0.200172 26.2242 0.310492 26.5353 0.498686 26.8335C0.589538 27.0021 0.699859 27.1511 0.829647 27.3002C1.38125 27.9873 2.17296 28.3957 2.99712 28.5448C3.49681 28.6161 4.04841 28.5836 4.54161 28.4346C4.56107 28.4151 4.58054 28.4151 4.60001 28.4151L13.3218 43.3366C13.192 43.4857 13.0622 43.6348 12.9519 43.7839C12.6599 44.2311 12.4717 44.7302 12.3808 45.2488C12.3224 45.7284 12.3419 46.1951 12.4522 46.6618C12.5431 46.9989 12.6534 47.2906 12.8416 47.5888C12.9324 47.7573 13.0428 47.9258 13.1726 48.0684C13.7242 48.7361 14.5159 49.1639 15.34 49.2935C15.8527 49.3648 16.3913 49.3519 16.8845 49.1833C17.1636 49.112 17.4166 48.9954 17.6762 48.8463C17.845 48.7555 17.9877 48.6453 18.137 48.5092C18.5393 48.1721 18.8703 47.7508 19.0779 47.2647C19.1169 47.2063 19.1493 47.1156 19.1688 47.0443L36.5345 46.8758C36.6059 47.1156 36.7162 47.3554 36.846 47.5823C36.9369 47.7508 37.0667 47.9193 37.177 48.062C37.7286 48.7296 38.5203 49.1574 39.3445 49.287C39.8571 49.3583 40.3957 49.3454 40.9084 49.1769C41.168 49.1056 41.4405 48.9889 41.6807 48.8398C41.8494 48.749 41.9921 48.6388 42.1414 48.5027C42.5438 48.1657 42.8747 47.7443 43.0954 47.2582H43.0759C43.5561 46.2405 43.5366 44.996 42.9072 43.9524C42.8163 43.7839 42.7255 43.6542 42.6151 43.5051L51.006 28.5318C51.5186 28.6031 52.0573 28.5707 52.5505 28.4216C52.8295 28.3309 53.0826 28.2207 53.3422 28.0716C53.5109 27.9808 53.6537 27.8706 53.7835 27.754C54.2053 27.4039 54.5362 26.9761 54.7374 26.5094C55.2176 25.4723 55.1982 24.2472 54.5687 23.1907L54.5881 23.1971ZM41.0122 42.4032C40.9733 42.3838 40.9409 42.3643 40.9019 42.3643C40.5904 42.2736 40.2595 42.2152 39.9285 42.2152L38.8967 39.2854C39.8506 38.4492 40.2789 37.1723 40.0583 35.9277L48.6308 28.817L41.0122 42.4032ZM20.9988 45.0543L34.3541 39.3567C35.0874 39.966 36.0478 40.2447 37.0018 40.1345C37.0407 40.1345 37.0732 40.1151 37.1121 40.1151L38.0531 42.7338C37.6118 43.0125 37.2419 43.3625 36.9693 43.7709C36.7487 44.1209 36.58 44.5163 36.4696 44.9052L20.9988 45.0543ZM36.5605 4.75595C36.6513 4.97634 36.7422 5.18376 36.8525 5.3847C36.9434 5.55323 37.0732 5.72176 37.1835 5.8514C37.2419 5.9227 37.3133 6.00049 37.3846 6.07179L35.4703 9.46834C34.7175 9.29981 33.9063 9.39704 33.173 9.76651L20.7717 4.90504L36.554 4.75595H36.5605ZM39.1368 34.1517C39.007 34.022 38.8772 33.8924 38.7345 33.7822C38.4554 33.5812 38.1439 33.3933 37.813 33.2831L36.6384 15.9697C36.7682 15.8984 36.8979 15.8012 37.0277 15.691C37.3392 15.4512 37.5793 15.153 37.7805 14.816L48.54 23.2036C48.2999 23.5925 48.1376 24.0398 48.0598 24.5C48.0014 24.9667 48.0208 25.4464 48.1312 25.9131C48.1896 26.114 48.2609 26.302 48.3518 26.5094L39.1368 34.1581V34.1517ZM18.8443 43.8422C18.6756 43.5829 18.4744 43.3431 18.2538 43.1357C17.8644 42.7856 17.3907 42.5264 16.891 42.3773C16.7807 42.3384 16.6704 42.306 16.56 42.2865L14.3731 27.015C14.4834 26.9956 14.5743 26.9567 14.6846 26.9048C14.8663 26.8465 15.035 26.7557 15.1973 26.665C15.4568 26.5159 15.658 26.3474 15.8592 26.1659L33.0951 35.999C33.0237 36.3879 33.0237 36.8157 33.0951 37.2241C33.1146 37.3926 33.1665 37.5612 33.2249 37.7038L18.8378 43.8487L18.8443 43.8422ZM16.2161 7.1089C16.4562 7.08946 16.6769 7.0376 16.917 6.97926C17.1765 6.88852 17.4491 6.77832 17.6892 6.62924C17.8579 6.53849 18.0007 6.4283 18.15 6.31162C18.2213 6.24032 18.3187 6.16254 18.3901 6.09123L31.6545 11.2898C31.4728 11.6398 31.343 12.0352 31.2846 12.4241C31.2651 12.5149 31.2651 12.6121 31.2456 12.7028L15.5931 20.7923C15.3335 20.5719 15.0415 20.4034 14.7106 20.2738C14.5808 20.2154 14.451 20.183 14.3212 20.1441L16.2356 7.11539H16.2161V7.1089ZM31.7388 14.7576C31.8297 14.9262 31.94 15.0947 32.0503 15.2243C32.6214 15.9114 33.3936 16.3392 34.2178 16.4689C34.3865 16.4883 34.5488 16.5078 34.698 16.5078L35.8402 33.134C35.7493 33.1534 35.6585 33.1729 35.5611 33.2053C35.2821 33.2766 35.029 33.3933 34.7694 33.5424C34.4774 33.7303 34.1983 33.9507 33.9582 34.21L16.8326 24.4482C16.9624 23.8713 16.9819 23.2814 16.8326 22.7045C16.7937 22.6138 16.7742 22.5036 16.7417 22.4063L31.6804 14.6863C31.6999 14.7252 31.7194 14.7447 31.7388 14.7576ZM38.2867 12.7158C38.2477 12.1778 38.105 11.6398 37.8065 11.1407C37.6377 10.8425 37.4366 10.6027 37.1965 10.3823L39.0719 7.04408C39.1628 7.06353 39.2536 7.08298 39.3509 7.10242C39.7533 7.16076 40.1816 7.16076 40.6034 7.06353L48.6244 20.7794L38.2867 12.7223V12.7158ZM12.3289 20.196C12.0694 20.2673 11.8292 20.384 11.6086 20.5136C10.6871 21.0711 10.116 21.9591 9.93433 22.9249L6.76748 23.5925C6.70908 23.4629 6.63769 23.3333 6.56631 23.2036C6.47546 23.0545 6.38461 22.9054 6.27429 22.7758L13.9513 9.07942L12.3354 20.196H12.3289ZM6.73503 26.5224C6.88429 26.2048 6.97514 25.8936 7.02706 25.5371L10.116 24.9084C10.155 24.9667 10.1744 25.038 10.2069 25.0964C10.2458 25.2065 10.2977 25.2973 10.3756 25.414C10.8364 26.2112 11.5697 26.7493 12.3808 26.9891L14.438 41.3726L6.23535 27.3261C6.43652 27.0863 6.60525 26.8076 6.73503 26.5289V26.5224Z" fill="#00D193"/>
<path d="M89.1119 11.5296C87.6777 11.5296 86.8471 12.3658 86.8471 13.8112V30.3467L71.3568 11.75L71.1751 11.5296H66.1523V37.8075H69.2413C70.6754 37.8075 71.5061 36.9713 71.5061 35.5258V19.0033L86.9964 37.6L87.1781 37.801H92.2009V11.5296H89.1119Z" fill="#00D193"/>
<path d="M100.592 26.853V28.5059C100.592 31.7922 102.208 33.4257 105.465 33.4257H119.041C120.475 33.4257 121.209 34.1711 121.209 35.6166V37.8075H104.375C98.2296 37.8075 95.1601 34.7091 95.1601 28.5124V20.8507C95.1601 14.6345 98.2296 11.5361 104.375 11.5361H113.61C119.755 11.5361 122.825 14.6345 122.825 20.8507V26.8659H100.585L100.592 26.853ZM100.592 22.4712H117.406V20.8377C117.406 17.5514 115.79 15.8984 112.532 15.8984H105.465C102.208 15.8984 100.592 17.5514 100.592 20.8377V22.4712Z" fill="#00D193"/>
<path d="M125.037 11.5296H124.427V13.8112C124.427 15.2567 125.258 16.0929 126.692 16.0929H135.193V37.8075H140.547V16.0929H149.048C150.483 16.0929 151.313 15.2567 151.313 13.8112V11.5296H125.044H125.037Z" fill="#00D193"/>
<path d="M193.047 11.5296C191.684 11.5296 190.711 12.2556 190.211 13.6103L184.176 30.2041L177.537 11.9444L177.388 11.5361H172.404L172.255 11.9444L165.616 30.2041L159.6 13.6103C159.101 12.2556 158.108 11.5296 156.751 11.5296H153.585L153.877 12.3658L162.981 37.4186L163.13 37.8075H168.114L168.264 37.4186L174.902 19.1394L181.541 37.4186L181.69 37.8075H186.674L186.823 37.4186L195.928 12.3658L196.22 11.5296H193.04H193.047Z" fill="#00D193"/>
<path d="M214.715 11.5296H206.434C203.378 11.5296 201.042 12.3269 199.484 13.902C197.94 15.4771 197.148 17.8365 197.148 20.9155V28.4345C197.148 31.5135 197.94 33.8729 199.484 35.448C201.048 37.0037 203.384 37.8075 206.434 37.8075H214.715C217.771 37.8075 220.108 37.0102 221.665 35.448C223.229 33.8729 224.021 31.5135 224.021 28.4345V20.9155C224.021 17.8365 223.229 15.4771 221.665 13.902C220.101 12.3269 217.765 11.5296 214.715 11.5296ZM218.667 20.922V28.441C218.667 31.7274 217.142 33.2506 213.884 33.2506H207.265C204.007 33.2506 202.482 31.7274 202.482 28.441V20.922C202.482 17.6356 204.007 16.0994 207.265 16.0994H213.884C217.142 16.0994 218.667 17.6421 218.667 20.922Z" fill="#00D193"/>
<path d="M245.124 26.9502C247.35 26.8594 249.077 26.1918 250.258 24.9991C251.543 23.7027 252.204 21.7711 252.204 19.2431C252.204 16.7151 251.543 14.7706 250.258 13.4871C248.973 12.1907 247.058 11.5231 244.553 11.5231H226.987V37.8075H230.056C231.51 37.8075 232.321 36.9713 232.321 35.5258V26.9502H238.687L246.117 35.9147C247.169 37.1787 248.343 37.8075 249.628 37.8075H254.132L253.288 36.8027L245.118 26.9307V26.9502H245.124ZM246.851 19.2496C246.851 21.421 245.877 22.3869 243.723 22.3869H232.321V16.0929H243.723C245.877 16.0929 246.851 17.0587 246.851 19.2496Z" fill="#00D193"/>
<path d="M283.548 11.5296H279.045C277.773 11.5296 276.598 12.1583 275.547 13.4223L268.117 22.3869H261.75V13.8112C261.75 12.3658 260.92 11.5296 259.486 11.5296H256.397V37.8075H259.486C260.92 37.8075 261.75 36.9713 261.75 35.5258V26.9502H268.117L275.547 35.9147C276.598 37.1787 277.773 37.8075 279.045 37.8075H283.548L282.718 36.8028L272.62 24.6685L282.718 12.5343L283.548 11.5296Z" fill="#00D193"/>
<path d="M308.053 26.3538C307.631 25.5954 307.04 24.9796 306.307 24.5324C307.812 23.3786 308.572 21.5053 308.572 18.9255C308.572 16.4948 307.949 14.6409 306.716 13.3964C305.483 12.1518 303.646 11.5231 301.252 11.5231H286.261V13.8047C286.261 15.2502 287.072 16.0864 288.526 16.0864H300.116C302.27 16.0864 303.224 17.0522 303.224 19.2431C303.224 21.434 302.27 22.3804 300.116 22.3804H287.494V26.9437H300.518C302.686 26.9437 303.646 27.9289 303.646 30.1004C303.646 32.2719 302.692 33.2377 300.518 33.2377H288.104C286.67 33.2377 285.839 34.0738 285.839 35.5193V37.801H301.66C304.055 37.801 305.911 37.1722 307.144 35.9277C308.377 34.6831 309 32.8293 309 30.418C309 28.7846 308.689 27.4104 308.059 26.3538H308.053Z" fill="#00D193"/>
</svg>
