<svg width="42" height="42" viewBox="0 0 42 42" fill="none" xmlns="http://www.w3.org/2000/svg">
<circle cx="21" cy="21" r="20.5" fill="black" stroke="#13D713"/>
<mask id="path-2-inside-1_29_1223" fill="white">
<path d="M35.7363 19.6954C35.6373 19.5216 35.5172 19.3691 35.3758 19.2485C35.1637 19.0463 34.9056 18.9044 34.6334 18.8228C34.4142 18.7625 34.1809 18.7305 33.9405 18.7518L29.0621 10.3514C29.2318 10.1882 29.3732 9.98599 29.4722 9.77314C29.7338 9.21618 29.7232 8.53507 29.3803 7.95683C29.2813 7.783 29.1611 7.6411 29.0197 7.50985C28.8076 7.30764 28.5496 7.17638 28.2774 7.08415C27.786 6.93161 27.2239 6.98127 26.7432 7.27571C26.4922 7.42825 26.2836 7.63046 26.1316 7.86459C26.0008 8.05616 25.9018 8.29029 25.8523 8.52443L16.5445 8.61666C16.5056 8.39317 16.4243 8.16968 16.3041 7.95683C16.2052 7.783 16.085 7.6411 15.9436 7.50985C15.7244 7.30764 15.4734 7.17638 15.2012 7.08415C14.6992 6.93161 14.1478 6.98127 13.667 7.27571C13.416 7.42825 13.2074 7.63046 13.0554 7.86459C12.8963 8.09873 12.7832 8.38253 12.7443 8.66632C12.7055 8.92174 12.7125 9.18426 12.7832 9.43968C12.8221 9.6135 12.8928 9.78378 12.9953 9.94697C13.0448 10.0392 13.1049 10.1208 13.1756 10.2024C13.2074 10.2414 13.2463 10.284 13.2852 10.323L8.53762 18.844C8.51641 18.844 8.49874 18.8334 8.47753 18.8228C7.98616 18.6702 7.42408 18.7199 6.94331 19.0143C6.69233 19.1669 6.48376 19.3691 6.33175 19.6032C6.17267 19.8373 6.05955 20.1211 6.02067 20.4049C5.98178 20.6604 5.99945 20.9229 6.05955 21.1783C6.10904 21.3521 6.16914 21.5224 6.27165 21.6856C6.32114 21.7778 6.38124 21.8594 6.45194 21.941C6.75242 22.317 7.1837 22.5405 7.63265 22.6221C7.90485 22.6611 8.20533 22.6434 8.47399 22.5618C8.4846 22.5512 8.4952 22.5512 8.50581 22.5512L13.2569 30.7175C13.1862 30.7991 13.1155 30.8807 13.0554 30.9622C12.8963 31.207 12.7938 31.4802 12.7443 31.764C12.7125 32.0265 12.7231 32.2819 12.7832 32.5373C12.8327 32.7218 12.8928 32.8814 12.9953 33.0446C13.0448 33.1368 13.1049 33.2291 13.1756 33.3071C13.4761 33.6725 13.9074 33.9067 14.3563 33.9776C14.6356 34.0166 14.929 34.0095 15.1977 33.9173C15.3497 33.8783 15.4875 33.8144 15.6289 33.7328C15.7209 33.6832 15.7986 33.6229 15.8799 33.5484C16.0991 33.3639 16.2794 33.1333 16.3925 32.8672C16.4137 32.8353 16.4314 32.7856 16.442 32.7466L25.9018 32.6544C25.9407 32.7856 26.0008 32.9169 26.0715 33.0411C26.121 33.1333 26.1917 33.2255 26.2518 33.3036C26.5523 33.669 26.9835 33.9031 27.4325 33.9741C27.7118 34.0131 28.0052 34.006 28.2844 33.9137C28.4258 33.8747 28.5743 33.8109 28.7051 33.7293C28.797 33.6796 28.8748 33.6193 28.9561 33.5448C29.1753 33.3603 29.3556 33.1298 29.4758 32.8637H29.4651C29.7267 32.3067 29.7161 31.6256 29.3732 31.0545C29.3237 30.9622 29.2743 30.8913 29.2142 30.8097L33.785 22.615C34.0642 22.654 34.3577 22.6363 34.6263 22.5547C34.7783 22.505 34.9162 22.4447 35.0576 22.3631C35.1495 22.3135 35.2273 22.2532 35.298 22.1893C35.5278 21.9978 35.708 21.7636 35.8176 21.5082C36.0792 20.9406 36.0686 20.2701 35.7257 19.6919L35.7363 19.6954ZM28.341 30.2066C28.3198 30.196 28.3021 30.1853 28.2809 30.1853C28.1112 30.1357 27.9309 30.1038 27.7506 30.1038L27.1886 28.5003C27.7082 28.0427 27.9415 27.3438 27.8213 26.6627L32.4912 22.7711L28.341 30.2066ZM17.4389 31.6575L24.714 28.5393C25.1135 28.8728 25.6367 29.0253 26.1563 28.965C26.1775 28.965 26.1952 28.9544 26.2164 28.9544L26.729 30.3875C26.4886 30.5401 26.2871 30.7317 26.1387 30.9551C26.0185 31.1467 25.9266 31.3631 25.8665 31.576L17.4389 31.6575ZM25.9159 9.60286C25.9654 9.72347 26.0149 9.83699 26.075 9.94697C26.1245 10.0392 26.1952 10.1314 26.2553 10.2024C26.2871 10.2414 26.326 10.284 26.3649 10.323L25.3221 12.1819C24.912 12.0896 24.4701 12.1429 24.0707 12.3451L17.3152 9.68445L25.9124 9.60286H25.9159ZM27.3194 25.6907C27.2487 25.6197 27.178 25.5488 27.1002 25.4885C26.9482 25.3785 26.7785 25.2756 26.5982 25.2153L25.9584 15.74C26.0291 15.701 26.0998 15.6478 26.1705 15.5875C26.3402 15.4562 26.471 15.293 26.5805 15.1085L32.4417 19.699C32.3109 19.9118 32.2225 20.1566 32.1801 20.4085C32.1483 20.6639 32.1589 20.9264 32.219 21.1818C32.2508 21.2918 32.2897 21.3947 32.3391 21.5082L27.3194 25.6942V25.6907ZM16.2653 30.9942C16.1733 30.8523 16.0638 30.721 15.9436 30.6075C15.7315 30.4159 15.4734 30.274 15.2012 30.1924C15.1411 30.1712 15.081 30.1534 15.0209 30.1428L13.8296 21.7849C13.8897 21.7743 13.9392 21.753 13.9993 21.7246C14.0983 21.6927 14.1902 21.643 14.2786 21.5933C14.42 21.5118 14.5295 21.4195 14.6391 21.3202L24.0282 26.7017C23.9893 26.9146 23.9893 27.1487 24.0282 27.3722C24.0388 27.4644 24.0671 27.5567 24.0989 27.6347L16.2617 30.9977L16.2653 30.9942ZM14.8336 10.8906C14.9644 10.88 15.0845 10.8516 15.2153 10.8196C15.3567 10.77 15.5052 10.7097 15.636 10.6281C15.7279 10.5784 15.8057 10.5181 15.887 10.4543C15.9259 10.4152 15.9789 10.3727 16.0178 10.3336L23.2434 13.1787C23.1445 13.3703 23.0738 13.5867 23.042 13.7995C23.0313 13.8492 23.0313 13.9024 23.0207 13.9521L14.4942 18.3793C14.3528 18.2587 14.1937 18.1665 14.0134 18.0955C13.9427 18.0636 13.872 18.0459 13.8013 18.0246L14.8442 10.8941H14.8336V10.8906ZM23.2894 15.0766C23.3389 15.1689 23.399 15.2611 23.4591 15.332C23.7702 15.7081 24.1908 15.9422 24.6398 16.0132C24.7317 16.0238 24.8201 16.0344 24.9014 16.0344L25.5236 25.1337C25.4741 25.1444 25.4246 25.155 25.3716 25.1728C25.2195 25.2118 25.0817 25.2756 24.9403 25.3572C24.7812 25.4601 24.6292 25.5807 24.4984 25.7226L15.1694 20.3801C15.2401 20.0644 15.2507 19.7416 15.1694 19.4258C15.1482 19.3762 15.1376 19.3159 15.1199 19.2626L23.2576 15.0376C23.2682 15.0589 23.2788 15.0695 23.2894 15.0766ZM26.8563 13.9592C26.8351 13.6647 26.7573 13.3703 26.5947 13.0971C26.5028 12.9339 26.3932 12.8027 26.2624 12.6821L27.284 10.8551C27.3335 10.8658 27.383 10.8764 27.436 10.887C27.6552 10.919 27.8885 10.919 28.1183 10.8658L32.4876 18.3722L26.8563 13.9627V13.9592ZM12.7161 18.053C12.5747 18.092 12.4439 18.1558 12.3237 18.2268C11.8217 18.5319 11.5106 19.0179 11.4116 19.5464L9.68652 19.9118C9.6547 19.8409 9.61582 19.7699 9.57693 19.699C9.52744 19.6174 9.47795 19.5358 9.41785 19.4649L13.5998 11.969L12.7196 18.053H12.7161ZM9.66884 21.5153C9.75015 21.3415 9.79964 21.1712 9.82792 20.9761L11.5106 20.632C11.5318 20.6639 11.5424 20.7029 11.5601 20.7349C11.5813 20.7952 11.6096 20.8448 11.652 20.9087C11.903 21.345 12.3025 21.6395 12.7443 21.7707L13.865 29.6426L9.39664 21.9552C9.50623 21.8239 9.59814 21.6714 9.66884 21.5188V21.5153Z"/>
</mask>
<path d="M35.7363 19.6954C35.6373 19.5216 35.5172 19.3691 35.3758 19.2485C35.1637 19.0463 34.9056 18.9044 34.6334 18.8228C34.4142 18.7625 34.1809 18.7305 33.9405 18.7518L29.0621 10.3514C29.2318 10.1882 29.3732 9.98599 29.4722 9.77314C29.7338 9.21618 29.7232 8.53507 29.3803 7.95683C29.2813 7.783 29.1611 7.6411 29.0197 7.50985C28.8076 7.30764 28.5496 7.17638 28.2774 7.08415C27.786 6.93161 27.2239 6.98127 26.7432 7.27571C26.4922 7.42825 26.2836 7.63046 26.1316 7.86459C26.0008 8.05616 25.9018 8.29029 25.8523 8.52443L16.5445 8.61666C16.5056 8.39317 16.4243 8.16968 16.3041 7.95683C16.2052 7.783 16.085 7.6411 15.9436 7.50985C15.7244 7.30764 15.4734 7.17638 15.2012 7.08415C14.6992 6.93161 14.1478 6.98127 13.667 7.27571C13.416 7.42825 13.2074 7.63046 13.0554 7.86459C12.8963 8.09873 12.7832 8.38253 12.7443 8.66632C12.7055 8.92174 12.7125 9.18426 12.7832 9.43968C12.8221 9.6135 12.8928 9.78378 12.9953 9.94697C13.0448 10.0392 13.1049 10.1208 13.1756 10.2024C13.2074 10.2414 13.2463 10.284 13.2852 10.323L8.53762 18.844C8.51641 18.844 8.49874 18.8334 8.47753 18.8228C7.98616 18.6702 7.42408 18.7199 6.94331 19.0143C6.69233 19.1669 6.48376 19.3691 6.33175 19.6032C6.17267 19.8373 6.05955 20.1211 6.02067 20.4049C5.98178 20.6604 5.99945 20.9229 6.05955 21.1783C6.10904 21.3521 6.16914 21.5224 6.27165 21.6856C6.32114 21.7778 6.38124 21.8594 6.45194 21.941C6.75242 22.317 7.1837 22.5405 7.63265 22.6221C7.90485 22.6611 8.20533 22.6434 8.47399 22.5618C8.4846 22.5512 8.4952 22.5512 8.50581 22.5512L13.2569 30.7175C13.1862 30.7991 13.1155 30.8807 13.0554 30.9622C12.8963 31.207 12.7938 31.4802 12.7443 31.764C12.7125 32.0265 12.7231 32.2819 12.7832 32.5373C12.8327 32.7218 12.8928 32.8814 12.9953 33.0446C13.0448 33.1368 13.1049 33.2291 13.1756 33.3071C13.4761 33.6725 13.9074 33.9067 14.3563 33.9776C14.6356 34.0166 14.929 34.0095 15.1977 33.9173C15.3497 33.8783 15.4875 33.8144 15.6289 33.7328C15.7209 33.6832 15.7986 33.6229 15.8799 33.5484C16.0991 33.3639 16.2794 33.1333 16.3925 32.8672C16.4137 32.8353 16.4314 32.7856 16.442 32.7466L25.9018 32.6544C25.9407 32.7856 26.0008 32.9169 26.0715 33.0411C26.121 33.1333 26.1917 33.2255 26.2518 33.3036C26.5523 33.669 26.9835 33.9031 27.4325 33.9741C27.7118 34.0131 28.0052 34.006 28.2844 33.9137C28.4258 33.8747 28.5743 33.8109 28.7051 33.7293C28.797 33.6796 28.8748 33.6193 28.9561 33.5448C29.1753 33.3603 29.3556 33.1298 29.4758 32.8637H29.4651C29.7267 32.3067 29.7161 31.6256 29.3732 31.0545C29.3237 30.9622 29.2743 30.8913 29.2142 30.8097L33.785 22.615C34.0642 22.654 34.3577 22.6363 34.6263 22.5547C34.7783 22.505 34.9162 22.4447 35.0576 22.3631C35.1495 22.3135 35.2273 22.2532 35.298 22.1893C35.5278 21.9978 35.708 21.7636 35.8176 21.5082C36.0792 20.9406 36.0686 20.2701 35.7257 19.6919L35.7363 19.6954ZM28.341 30.2066C28.3198 30.196 28.3021 30.1853 28.2809 30.1853C28.1112 30.1357 27.9309 30.1038 27.7506 30.1038L27.1886 28.5003C27.7082 28.0427 27.9415 27.3438 27.8213 26.6627L32.4912 22.7711L28.341 30.2066ZM17.4389 31.6575L24.714 28.5393C25.1135 28.8728 25.6367 29.0253 26.1563 28.965C26.1775 28.965 26.1952 28.9544 26.2164 28.9544L26.729 30.3875C26.4886 30.5401 26.2871 30.7317 26.1387 30.9551C26.0185 31.1467 25.9266 31.3631 25.8665 31.576L17.4389 31.6575ZM25.9159 9.60286C25.9654 9.72347 26.0149 9.83699 26.075 9.94697C26.1245 10.0392 26.1952 10.1314 26.2553 10.2024C26.2871 10.2414 26.326 10.284 26.3649 10.323L25.3221 12.1819C24.912 12.0896 24.4701 12.1429 24.0707 12.3451L17.3152 9.68445L25.9124 9.60286H25.9159ZM27.3194 25.6907C27.2487 25.6197 27.178 25.5488 27.1002 25.4885C26.9482 25.3785 26.7785 25.2756 26.5982 25.2153L25.9584 15.74C26.0291 15.701 26.0998 15.6478 26.1705 15.5875C26.3402 15.4562 26.471 15.293 26.5805 15.1085L32.4417 19.699C32.3109 19.9118 32.2225 20.1566 32.1801 20.4085C32.1483 20.6639 32.1589 20.9264 32.219 21.1818C32.2508 21.2918 32.2897 21.3947 32.3391 21.5082L27.3194 25.6942V25.6907ZM16.2653 30.9942C16.1733 30.8523 16.0638 30.721 15.9436 30.6075C15.7315 30.4159 15.4734 30.274 15.2012 30.1924C15.1411 30.1712 15.081 30.1534 15.0209 30.1428L13.8296 21.7849C13.8897 21.7743 13.9392 21.753 13.9993 21.7246C14.0983 21.6927 14.1902 21.643 14.2786 21.5933C14.42 21.5118 14.5295 21.4195 14.6391 21.3202L24.0282 26.7017C23.9893 26.9146 23.9893 27.1487 24.0282 27.3722C24.0388 27.4644 24.0671 27.5567 24.0989 27.6347L16.2617 30.9977L16.2653 30.9942ZM14.8336 10.8906C14.9644 10.88 15.0845 10.8516 15.2153 10.8196C15.3567 10.77 15.5052 10.7097 15.636 10.6281C15.7279 10.5784 15.8057 10.5181 15.887 10.4543C15.9259 10.4152 15.9789 10.3727 16.0178 10.3336L23.2434 13.1787C23.1445 13.3703 23.0738 13.5867 23.042 13.7995C23.0313 13.8492 23.0313 13.9024 23.0207 13.9521L14.4942 18.3793C14.3528 18.2587 14.1937 18.1665 14.0134 18.0955C13.9427 18.0636 13.872 18.0459 13.8013 18.0246L14.8442 10.8941H14.8336V10.8906ZM23.2894 15.0766C23.3389 15.1689 23.399 15.2611 23.4591 15.332C23.7702 15.7081 24.1908 15.9422 24.6398 16.0132C24.7317 16.0238 24.8201 16.0344 24.9014 16.0344L25.5236 25.1337C25.4741 25.1444 25.4246 25.155 25.3716 25.1728C25.2195 25.2118 25.0817 25.2756 24.9403 25.3572C24.7812 25.4601 24.6292 25.5807 24.4984 25.7226L15.1694 20.3801C15.2401 20.0644 15.2507 19.7416 15.1694 19.4258C15.1482 19.3762 15.1376 19.3159 15.1199 19.2626L23.2576 15.0376C23.2682 15.0589 23.2788 15.0695 23.2894 15.0766ZM26.8563 13.9592C26.8351 13.6647 26.7573 13.3703 26.5947 13.0971C26.5028 12.9339 26.3932 12.8027 26.2624 12.6821L27.284 10.8551C27.3335 10.8658 27.383 10.8764 27.436 10.887C27.6552 10.919 27.8885 10.919 28.1183 10.8658L32.4876 18.3722L26.8563 13.9627V13.9592ZM12.7161 18.053C12.5747 18.092 12.4439 18.1558 12.3237 18.2268C11.8217 18.5319 11.5106 19.0179 11.4116 19.5464L9.68652 19.9118C9.6547 19.8409 9.61582 19.7699 9.57693 19.699C9.52744 19.6174 9.47795 19.5358 9.41785 19.4649L13.5998 11.969L12.7196 18.053H12.7161ZM9.66884 21.5153C9.75015 21.3415 9.79964 21.1712 9.82792 20.9761L11.5106 20.632C11.5318 20.6639 11.5424 20.7029 11.5601 20.7349C11.5813 20.7952 11.6096 20.8448 11.652 20.9087C11.903 21.345 12.3025 21.6395 12.7443 21.7707L13.865 29.6426L9.39664 21.9552C9.50623 21.8239 9.59814 21.6714 9.66884 21.5188V21.5153Z" fill="#00D193" stroke="#13D713" stroke-width="2" mask="url(#path-2-inside-1_29_1223)"/>
</svg>
