<svg xmlns="http://www.w3.org/2000/svg" xmlns:xlink="http://www.w3.org/1999/xlink" width="208" height="208" viewBox="0 0 208 208"><defs><style>.a{fill:#fff;}.b{fill:#c0a0fc;}.c{fill:#508def;}.d{fill:#6eded6;}.e{fill:#0f2b9a;}.f{fill:#ff8939;}.g{fill:#ff6363;}.h{fill:#ffc5b3;}.i{fill:#0abfb2;}.j{fill:#c67552;}.k{fill:#ffece9;}.l{fill:#ffa364;}.m{fill:#abd1ff;}.n{fill:#5affdf;}.o{filter:url(#a);}</style><filter id="a" x="0" y="0" width="208" height="208" filterUnits="userSpaceOnUse"><feOffset dy="4" input="SourceAlpha"/><feGaussianBlur stdDeviation="10" result="b"/><feFlood flood-color="#471b68" flood-opacity="0.102"/><feComposite operator="in" in2="b"/><feComposite in="SourceGraphic"/></filter></defs><g transform="translate(-4 26)"><g class="o" transform="matrix(1, 0, 0, 1, 4, -26)"><circle class="a" cx="74" cy="74" r="74" transform="translate(30 26)"/></g><g transform="translate(61.576 27.112)"><path class="b" d="M55.735,55.735m-45.5,0a45.5,45.5,0,1,0,45.5-45.5,45.5,45.5,0,0,0-45.5,45.5Z" transform="translate(-9.312 -9.312)"/><path class="c" d="M245.317,111.788m-26.592,0A26.592,26.592,0,1,0,245.317,85.2a26.592,26.592,0,0,0-26.592,26.592Z" transform="translate(-198.894 -77.471)"/><path class="d" d="M330.091,111.788a61.191,61.191,0,0,1-1.913,14.057s6.258,2.433,7.632,5.125c0,0,8.8-7.688,7.372-19.182H330.091ZM315.532,85.2s-10.975.241-17.548,8.412a28.369,28.369,0,0,0,8.133,5.924s1.151-11.643,9.415-14.336Zm1.857,26.592h-12.7s-.019,9.025,1.913,14.057c0,0,6.462-3.045,10.77-2.284V111.788Zm11.272-12.256a26.752,26.752,0,0,1-11.272,2.507V86.032s7.446-2.006,11.272,13.5Zm-22.042,26.313s-5.627,1.913-7.632,5.125c0,0,7.539,7.038,15.766,7.279-.019,0-6.425-3.045-8.133-12.4Z" transform="translate(-270.965 -77.472)"/><path class="e" d="M318.134,514.749a27.374,27.374,0,0,1-19.052-7.669.883.883,0,0,1-.279-.669.956.956,0,0,1,.279-.669,27.5,27.5,0,0,1,38.1,0,.883.883,0,0,1,.279.669.956.956,0,0,1-.279.669A27.374,27.374,0,0,1,318.134,514.749Zm-17.047-8.338a25.66,25.66,0,0,0,34.094,0,25.66,25.66,0,0,0-34.094,0Z" transform="translate(-271.71 -452.913)"/><path class="e" d="M502.689,130a.919.919,0,0,1-.928-.928V75.885a.928.928,0,0,1,1.857,0v53.183A.919.919,0,0,1,502.689,130Z" transform="translate(-456.265 -68.16)"/><path class="e" d="M246.407,130c-3.77,0-7.261-2.953-9.823-8.319-2.451-5.144-3.807-11.959-3.807-19.2s1.356-14.057,3.807-19.2c2.563-5.367,6.054-8.319,9.823-8.319s7.261,2.953,9.823,8.319c2.451,5.144,3.807,11.959,3.807,19.2s-1.356,14.057-3.807,19.2C253.668,127.045,250.177,130,246.407,130Zm0-53.183c-3.008,0-5.905,2.581-8.133,7.261-2.34,4.9-3.621,11.439-3.621,18.4s1.281,13.5,3.621,18.4c2.228,4.68,5.125,7.261,8.133,7.261s5.905-2.581,8.133-7.261c2.34-4.9,3.621-11.439,3.621-18.4s-1.281-13.5-3.621-18.4c-2.228-4.68-5.125-7.261-8.133-7.261ZM223.326,90.166a.882.882,0,0,1-.464-.13.916.916,0,0,1-.334-1.263l.223-.39a.933.933,0,1,1,1.6.966,3.449,3.449,0,0,0-.2.353A.927.927,0,0,1,223.326,90.166Zm-2.47,5.868A1.253,1.253,0,0,1,220.6,96a.916.916,0,0,1-.631-1.151,27.455,27.455,0,0,1,1.058-3.008.924.924,0,1,1,1.708.706,21.838,21.838,0,0,0-.984,2.8A.942.942,0,0,1,220.856,96.034Z" transform="translate(-199.984 -68.161)"/><path class="e" d="M236.006,130.183a27.555,27.555,0,0,1-27.52-27.52,28.632,28.632,0,0,1,.316-4.2.93.93,0,0,1,1.838.279,24.961,24.961,0,0,0-.3,3.918,25.635,25.635,0,1,0,5.664-16.1.925.925,0,1,1-1.448-1.151,27.516,27.516,0,1,1,21.448,44.771Z" transform="translate(-189.582 -68.346)"/><path class="f" d="M374.032,456.281l-3.992-2.47a5.391,5.391,0,0,1-2.544-4.568v-.5a2.323,2.323,0,0,1,1.356-2.08,10.185,10.185,0,0,0,5.868-9.229V432.7a10.195,10.195,0,1,0-20.389,0v4.735a10.185,10.185,0,0,0,5.868,9.229,2.323,2.323,0,0,1,1.356,2.08v.5a5.391,5.391,0,0,1-2.544,4.568l-3.992,2.47a11.008,11.008,0,0,0-5.218,9.34v8.059a45.521,45.521,0,0,0,14.726,2.433,45.064,45.064,0,0,0,14.744-2.451V465.6a11.019,11.019,0,0,0-5.237-9.322Z" transform="translate(-318.082 -384.194)"/><path class="g" d="M373.659,778.087l-2.73-1.69a20.636,20.636,0,0,1-13.593,0l-2.73,1.69a11.008,11.008,0,0,0-5.218,9.34v8.059a45.518,45.518,0,0,0,14.726,2.433,45.062,45.062,0,0,0,14.744-2.451v-8.059a10.9,10.9,0,0,0-5.2-9.322Z" transform="translate(-317.709 -706)"/><path class="h" d="M92,456.281,88,453.811a5.391,5.391,0,0,1-2.544-4.568v-.5a2.323,2.323,0,0,1,1.356-2.08,10.185,10.185,0,0,0,5.868-9.229V432.7a10.195,10.195,0,1,0-20.389,0v4.735a10.185,10.185,0,0,0,5.868,9.229,2.323,2.323,0,0,1,1.356,2.08v.5a5.391,5.391,0,0,1-2.544,4.568l-2.841,1.746a45.678,45.678,0,0,0,23.1,18.031V465.6A11.019,11.019,0,0,0,92,456.281Z" transform="translate(-65.74 -384.194)"/><path class="i" d="M110.247,778.087l-2.73-1.69a20.636,20.636,0,0,1-13.593,0l-1.56.966a45.677,45.677,0,0,0,23.1,18.031v-7.985a10.959,10.959,0,0,0-5.218-9.322Z" transform="translate(-83.99 -706)"/><path class="j" d="M694.971,449.242v-.5a2.323,2.323,0,0,1,1.356-2.08,10.186,10.186,0,0,0,5.868-9.229V432.7a10.195,10.195,0,1,0-20.389,0v4.735a10.186,10.186,0,0,0,5.868,9.229,2.323,2.323,0,0,1,1.356,2.08v.5a5.391,5.391,0,0,1-2.544,4.568l-3.992,2.47a11.009,11.009,0,0,0-5.218,9.34v7.966a45.677,45.677,0,0,0,23.1-18.031l-2.823-1.746a5.343,5.343,0,0,1-2.581-4.568Z" transform="translate(-615.864 -384.193)"/><path class="c" d="M691.608,777.547a20.56,20.56,0,0,1-6.8-1.151l-2.73,1.69a11.008,11.008,0,0,0-5.218,9.34v7.966a45.677,45.677,0,0,0,23.1-18.031l-1.56-.966a20.478,20.478,0,0,1-6.8,1.151Z" transform="translate(-615.492 -705.999)"/><path class="k" d="M108.205,454.93a.932.932,0,0,1-.111-1.857,8.348,8.348,0,0,1,.947-.056.928.928,0,1,1,0,1.857c-.241,0-.483.019-.743.037A.2.2,0,0,1,108.205,454.93Zm-5.441,13.184a.94.94,0,0,1-.928-.817l-.019-.093c-.5-3.324-.873-6.3-.019-9.118.019-.037.019-.074.037-.111.056-.149.111-.279.167-.409l.019-.037c.019-.056.037-.093.056-.149l.056-.111a9.459,9.459,0,0,1,2.135-2.637.924.924,0,0,1,1.17,1.43,7.869,7.869,0,0,0-1.671,2.08c0,.019-.019.037-.019.056l-.019.037c-.056.13-.111.279-.167.409-.706,2.433-.371,5.181.093,8.245l.019.056v.074a.948.948,0,0,1-.817,1.04C102.839,468.115,102.8,468.115,102.764,468.115Z" transform="translate(-92.105 -411.942)"/><path class="k" d="M108.205,454.93a.932.932,0,0,1-.111-1.857,8.348,8.348,0,0,1,.947-.056.928.928,0,1,1,0,1.857c-.241,0-.483.019-.743.037A.2.2,0,0,1,108.205,454.93Zm-5.441,13.184a.94.94,0,0,1-.928-.817l-.019-.093c-.5-3.324-.873-6.3-.019-9.118.019-.037.019-.074.037-.111.056-.149.111-.279.167-.409l.019-.037c.019-.056.037-.093.056-.149l.056-.111a9.459,9.459,0,0,1,2.135-2.637.924.924,0,0,1,1.17,1.43,7.869,7.869,0,0,0-1.671,2.08c0,.019-.019.037-.019.056l-.019.037c-.056.13-.111.279-.167.409-.706,2.433-.371,5.181.093,8.245l.019.056v.074a.948.948,0,0,1-.817,1.04C102.839,468.115,102.8,468.115,102.764,468.115Z" transform="translate(-92.105 -411.942)"/><path class="h" d="M435.826,454.93a.932.932,0,0,1-.111-1.857,8.349,8.349,0,0,1,.947-.056.928.928,0,1,1,0,1.857c-.241,0-.483.019-.743.037A.139.139,0,0,1,435.826,454.93Zm-5.441,13.184a.94.94,0,0,1-.928-.817l-.019-.093c-.52-3.324-.873-6.3-.019-9.118.019-.037.019-.074.037-.111.056-.149.111-.279.167-.409l.019-.056a.91.91,0,0,1,.056-.13l.056-.111a9.459,9.459,0,0,1,2.136-2.637.924.924,0,0,1,1.17,1.43,7.869,7.869,0,0,0-1.671,2.08c0,.019-.019.037-.019.056l-.019.056c-.056.13-.111.26-.167.409-.706,2.433-.371,5.181.093,8.263l.019.056v.093a.948.948,0,0,1-.817,1.04Z" transform="translate(-390.015 -411.942)"/><path class="l" d="M762.892,454.93a.932.932,0,0,1-.111-1.857,8.349,8.349,0,0,1,.947-.056.928.928,0,0,1,0,1.857c-.241,0-.483.019-.743.037A.139.139,0,0,1,762.892,454.93Zm-5.441,13.184a.941.941,0,0,1-.929-.817l-.018-.093c-.52-3.324-.873-6.3-.019-9.118.019-.037.019-.074.037-.111.056-.149.111-.279.167-.409l.019-.056a.906.906,0,0,1,.056-.13l.056-.111a9.458,9.458,0,0,1,2.135-2.637.924.924,0,0,1,1.17,1.43,7.869,7.869,0,0,0-1.671,2.08c0,.019-.019.037-.019.056l-.019.056c-.056.13-.111.26-.167.409-.706,2.433-.371,5.181.093,8.263l.019.056v.093a.948.948,0,0,1-.817,1.04Z" transform="translate(-687.425 -411.942)"/><path class="m" d="M250.374,179.894a.919.919,0,0,1-.928-.928,23.8,23.8,0,0,1,10.51-19.739.922.922,0,0,1,1.04,1.523,21.941,21.941,0,0,0-9.693,18.2.924.924,0,0,1-.928.947Z" transform="translate(-226.828 -144.649)"/><path class="n" d="M318.844,164.24a.842.842,0,0,1-.631-.26.936.936,0,0,1-.037-1.318,23.057,23.057,0,0,1,4.048-3.435.922.922,0,1,1,1.04,1.523,22.519,22.519,0,0,0-3.732,3.175A.92.92,0,0,1,318.844,164.24Z" transform="translate(-289.096 -144.649)"/><path class="e" d="M204.887,103.406H151.7a.928.928,0,1,1,0-1.857h53.183a.928.928,0,0,1,0,1.857ZM178.3,93.638A27.671,27.671,0,0,1,158.2,84.929a.92.92,0,0,1,0-1.263,27.531,27.531,0,0,1,40.185,0,.92.92,0,0,1,0,1.263A27.671,27.671,0,0,1,178.3,93.638ZM160.172,84.3a25.688,25.688,0,0,0,36.248,0,25.688,25.688,0,0,0-36.248,0ZM148.38,127.88a3.75,3.75,0,0,1-3.231-1.857.924.924,0,1,1,1.6-.928,1.87,1.87,0,0,0,3.231,0,.924.924,0,1,1,1.6.928A3.623,3.623,0,0,1,148.38,127.88Zm29.916,0a3.75,3.75,0,0,1-3.231-1.857.924.924,0,0,1,1.6-.928,1.87,1.87,0,0,0,3.231,0,.924.924,0,0,1,1.6.928A3.623,3.623,0,0,1,178.3,127.88Zm29.9,0a3.75,3.75,0,0,1-3.231-1.857.924.924,0,1,1,1.6-.928,1.87,1.87,0,0,0,3.231,0,.924.924,0,1,1,1.6.928,3.645,3.645,0,0,1-3.194,1.857Z" transform="translate(-131.872 -68.161)"/></g></g></svg>