<svg xmlns="http://www.w3.org/2000/svg" xmlns:xlink="http://www.w3.org/1999/xlink" width="208" height="208" viewBox="0 0 208 208"><defs><style>.a{fill:#fff;}.b{fill:#8bb8ff;}.c{fill:#a271ff;}.d{fill:#f3f4ff;}.e{fill:#ffeb9a;}.f{fill:#38abf9;}.g{fill:#ff9985;}.h{fill:#000544;}.i{fill:#000543;}.j{fill:#3278c6;}.k{fill:#313131;}.l{filter:url(#a);}</style><filter id="a" x="0" y="0" width="208" height="208" filterUnits="userSpaceOnUse"><feOffset dy="4" input="SourceAlpha"/><feGaussianBlur stdDeviation="10" result="b"/><feFlood flood-color="#471b68" flood-opacity="0.102"/><feComposite operator="in" in2="b"/><feComposite in="SourceGraphic"/></filter></defs><g transform="translate(-4 26)"><g class="l" transform="matrix(1, 0, 0, 1, 4, -26)"><circle class="a" cx="74" cy="74" r="74" transform="translate(30 26)"/></g><g transform="translate(48.643 24.84)"><path class="b" d="M158.773,233.08m6.075,0h78.7q6.075,0,6.075,6.687v47.181q0,6.687-6.075,6.687h-78.7q-6.075,0-6.075-6.687V239.767Q158.773,233.08,164.848,233.08Z" transform="translate(-144.339 -214.662)"/><path class="a" d="M591.763,336.466H554.739a1.105,1.105,0,1,1,0-2.207h37.024a1.105,1.105,0,1,1,0,2.207Zm0,6.5H554.739a1.105,1.105,0,1,1,0-2.207h37.024a1.105,1.105,0,1,1,0,2.207Zm0,6.5H573.254a1.105,1.105,0,1,1,0-2.207h18.509a1.105,1.105,0,1,1,0,2.207Zm-26.089,0H554.739a1.105,1.105,0,1,1,0-2.207h10.935a1.105,1.105,0,1,1,0,2.207Z" transform="translate(-495.836 -301.97)"/><path class="c" d="M570.247,574.06h35.534v6.383H570.247Z" transform="translate(-510.678 -515.469)"/><path class="d" d="M246.331,292.627v22.987a10.759,10.759,0,0,1-.916,4.365c-.027.07-.058.128-.085.186a10.843,10.843,0,0,1-9.851,6.3H222.187a10.834,10.834,0,0,1-9.622-5.834,10.7,10.7,0,0,1-1.221-5.022V289.971a8.209,8.209,0,0,1,8.2-8.215h15.932a10.856,10.856,0,0,1,10.853,10.871Z" transform="translate(-191.143 -255.227)"/><path class="e" d="M430.044,603.6a10.843,10.843,0,0,1-9.854,6.3h-.7c-3.034-6.392,4.857-13.646,9.683-7.409.253.333.549.705.873,1.105Z" transform="translate(-375.855 -538.662)"/><path class="f" d="M255.331,571.893c-.027.07-.058.128-.085.186a10.843,10.843,0,0,1-9.854,6.3H232.1a10.834,10.834,0,0,1-9.622-5.834,23.243,23.243,0,0,1,2.006-2.4,16.1,16.1,0,0,1,11.21-5.413.989.989,0,0,1,.168,0,17.533,17.533,0,0,1,2.888.067c.137-.018.263-.031.4-.04a1.854,1.854,0,0,1,.394.04,19.208,19.208,0,0,1,1.966-.1h.186a17.9,17.9,0,0,1,2.164.156,16.529,16.529,0,0,1,9.955,5.3C254.382,570.748,254.891,571.334,255.331,571.893Z" transform="translate(-201.056 -507.141)"/><path class="g" d="M324.594,369.909a5.953,5.953,0,0,0-3.358,3.492,7.6,7.6,0,0,0-.406,2.4v5.336c0,3.645,2.442,6.6,5.495,6.566h.061c3.053.034,5.516-2.921,5.495-6.566V375.8a7.6,7.6,0,0,0-.406-2.4,5.938,5.938,0,0,0-3.309-3.492,4.472,4.472,0,0,0-3.572,0Z" transform="translate(-288.62 -333.38)"/><path class="g" d="M349.053,483.636V470.958c0-.748-.443-1.371-.989-1.374H344.1a1.244,1.244,0,0,0-1.029,1.346v12.013Z" transform="translate(-308.417 -422.453)"/><path class="h" d="M310.788,418.32h-2.232a48.447,48.447,0,0,0,1.288,4.72h.437c-.021-.412-.168-3.422-.1-3.773a1.4,1.4,0,0,1,.6-.946Zm1.563,0,.305.092c.266.079.531.159.791.211l.226.052a9.046,9.046,0,0,0,1.771.256,7.794,7.794,0,0,0,1.752-.256l.226-.052c.259-.052.525-.131.791-.211l.305-.092Zm7.748,0a1.377,1.377,0,0,1,.611.946c.076.382-.07,3.163-.095,3.535h.479s.54-2.412.54-2.421c.186-.672.36-1.362.482-2.061Z" transform="translate(-277.693 -376.812)"/><path class="g" d="M320.032,456.893a1.9,1.9,0,1,0,1.523,1.871A1.714,1.714,0,0,0,320.032,456.893Zm-10.364,0a1.9,1.9,0,1,0,1.526,1.871A1.732,1.732,0,0,0,309.668,456.893Z" transform="translate(-277.296 -411.154)"/><path class="a" d="M358.485,498.166c0,.461.611.839,1.349.839s1.352-.372,1.352-.839Z" transform="translate(-322.145 -447.899)"/><path class="i" d="M320.525,370.554a2.546,2.546,0,0,0,.305-1.874,14.3,14.3,0,0,1-.281-1.932,8.669,8.669,0,0,1,.1-1.67.364.364,0,0,1-.107-.153c-.037-.113-.082-.223-.113-.339a.305.305,0,0,1,.11-.305.7.7,0,0,1-.2-.061c-.037-.018-.073-.031-.113-.046a7.677,7.677,0,0,1-.7,2.051c-2,4.378-7.693,2.976-9.1,0a7.273,7.273,0,0,1-.7-2.051c-.037.015-.076.027-.113.046a1.484,1.484,0,0,1-.452.119,3.053,3.053,0,0,1,.113.705.275.275,0,0,1-.037.14,6,6,0,0,1,.171,1.569,14.3,14.3,0,0,1-.281,1.932,2.642,2.642,0,0,0,.305,1.874,2.658,2.658,0,0,1,.375.525,1.643,1.643,0,0,1,0,.916,2.534,2.534,0,0,0,.095,1.526,2.579,2.579,0,0,0,.84.864,5.208,5.208,0,0,0,2.158,1.133c.476.076.916.024,1.358.076a5.537,5.537,0,0,0,1.386,0c.446-.058.888,0,1.377-.079a5.209,5.209,0,0,0,2.158-1.133,2.58,2.58,0,0,0,.84-.864,2.534,2.534,0,0,0,.095-1.526,1.643,1.643,0,0,1,0-.916,2.669,2.669,0,0,1,.412-.528Zm-9.073-15.374a10.683,10.683,0,0,1,1.926-.467l3.123-.556a7.9,7.9,0,0,1,2.537-.168,4.344,4.344,0,0,1,3.358,3.034,5.263,5.263,0,0,1-.861,4.539,10.217,10.217,0,0,0-4.668-.107,9.637,9.637,0,0,1-1.755.305c-1.719.052-3.474-1.2-5.046-.507-2.137.94-2.293-.751-1.771-2.549A5.4,5.4,0,0,1,311.452,355.18Z" transform="translate(-277.237 -319.506)"/><path class="a" d="M360.349,499.669a1.674,1.674,0,0,0,1.38.476,1.691,1.691,0,0,0,1.38-.476Z" transform="translate(-323.804 -449.238)"/><path class="j" d="M328.319,556.243l1.847,2.622s3.663-.8,3.3-5.751l-2.137-1.542A5.058,5.058,0,0,1,328.319,556.243Zm0,0-1.862,2.622s-3.663-.775-3.3-5.593l2.137-1.5A4.884,4.884,0,0,0,328.319,556.243Z" transform="translate(-290.669 -495.448)"/><path class="k" d="M591.763,349.462H573.254a1.105,1.105,0,1,1,0-2.207h18.509a1.105,1.105,0,1,1,0,2.207Zm-26.089,0H554.739a1.105,1.105,0,1,1,0-2.207h10.935a1.105,1.105,0,1,1,0,2.207Z" transform="translate(-495.836 -301.97)"/></g></g></svg>