<svg xmlns="http://www.w3.org/2000/svg" xmlns:xlink="http://www.w3.org/1999/xlink" width="208" height="208" viewBox="0 0 208 208"><defs><style>.a{fill:#fff;}.b{fill:#c199ff;}.c{fill:#8bb8ff;}.d,.f{fill:none;}.d{stroke:#232323;stroke-width:2px;}.e{stroke:none;}.g{filter:url(#a);}</style><filter id="a" x="0" y="0" width="208" height="208" filterUnits="userSpaceOnUse"><feOffset dy="4" input="SourceAlpha"/><feGaussianBlur stdDeviation="10" result="b"/><feFlood flood-color="#471b68" flood-opacity="0.102"/><feComposite operator="in" in2="b"/><feComposite in="SourceGraphic"/></filter></defs><g transform="translate(-4 26)"><g class="g" transform="matrix(1, 0, 0, 1, 4, -26)"><circle class="a" cx="74" cy="74" r="74" transform="translate(30 26)"/></g><g transform="translate(-10.804 -25.986)"><path class="b" d="M108.309,111.109a16.361,16.361,0,0,1,18.191-3.4c.081-.093.147-.2.235-.286l6.317-6.314-3.421-3.421a4.47,4.47,0,0,1,0-6.315l1.053-1.052a4.428,4.428,0,0,1,2.911-1.3,4.434,4.434,0,0,1,1.3-2.91l1.053-1.052a4.45,4.45,0,0,1,5.535-.614V66.867A2.986,2.986,0,0,0,138.5,63.89H87.878A2.986,2.986,0,0,0,84.9,66.867v62.518a2.986,2.986,0,0,0,2.978,2.977H106.7a16.379,16.379,0,0,1,1.607-21.253Z" transform="translate(0 0)"/><path class="a" d="M216.239,262.335H186.621a.081.081,0,0,1-.081-.081v-4.3a.081.081,0,0,1,.081-.081H216.24a.081.081,0,0,1,.081.081v4.3A.082.082,0,0,1,216.239,262.335ZM204.327,273.5H186.621a.081.081,0,0,1-.081-.081v-4.3a.081.081,0,0,1,.081-.081h17.707a.081.081,0,0,1,.081.081v4.3A.081.081,0,0,1,204.327,273.5Z" transform="translate(-93.451 -178.351)"/><path class="c" d="M399.424,351.206l-1.053-1.052a2.241,2.241,0,0,0-3.159,0l-3.158,3.158-5.528-5.526a1.494,1.494,0,0,0-2.106,0l-1.053,1.052a1.492,1.492,0,0,0,0,2.105l5.528,5.526-2.1,2.105-5.528-5.526a1.494,1.494,0,0,0-2.105,0L378.1,354.1a1.493,1.493,0,0,0,0,2.105l5.527,5.526-10.245,10.242a13.394,13.394,0,1,0,4.212,4.21l21.827-21.82A2.239,2.239,0,0,0,399.424,351.206Z" transform="translate(-246.367 -260.622)"/><g class="d" transform="translate(112.804 115.986)"><circle class="e" cx="7" cy="7" r="7"/><circle class="f" cx="7" cy="7" r="6"/></g></g></g></svg>