<svg xmlns="http://www.w3.org/2000/svg" xmlns:xlink="http://www.w3.org/1999/xlink" width="208" height="208" viewBox="0 0 208 208"><defs><style>.a{fill:#fff;}.b{fill:#adc9ff;}.c{fill:#c0a0fc;}.d{fill:#272727;}.e{fill:#a4fcf5;}.e,.f,.g,.h,.i,.j{stroke:#4153ae;stroke-linecap:round;stroke-linejoin:round;}.f{fill:none;stroke-miterlimit:10;}.g{fill:#cfc3fb;}.h{fill:#cdaefb;}.i{fill:#80a4f7;}.j{fill:#82a9f9;}.k{filter:url(#a);}</style><filter id="a" x="0" y="0" width="208" height="208" filterUnits="userSpaceOnUse"><feOffset dy="4" input="SourceAlpha"/><feGaussianBlur stdDeviation="10" result="b"/><feFlood flood-color="#471b68" flood-opacity="0.102"/><feComposite operator="in" in2="b"/><feComposite in="SourceGraphic"/></filter></defs><g transform="translate(-4 26)"><g class="k" transform="matrix(1, 0, 0, 1, 4, -26)"><circle class="a" cx="74" cy="74" r="74" transform="translate(30 26)"/></g><g transform="translate(55.656 20.085)"><path class="b" d="M122.778,123.108c-22.54,0-40.815,17.034-40.815,38.042a36.325,36.325,0,0,0,9.056,23.891L85.952,198.6a2.712,2.712,0,0,0,3.208,3.578l20.178-5.107a43.392,43.392,0,0,0,13.442,2.116c22.542,0,40.815-17.034,40.815-38.04s-18.273-38.043-40.815-38.043Z" transform="translate(-74.663 -112.143)"/><path class="c" d="M512,535.147a23.16,23.16,0,1,0,14.3-21.4A23.158,23.158,0,0,0,512,535.147Z" transform="translate(-460.932 -461.442)"/><path class="d" d="M618.467,661.333a7.963,7.963,0,0,1,0,15.922,7.448,7.448,0,0,1-4.458-1.416,1.222,1.222,0,0,1-.289-1.65,1.172,1.172,0,0,1,1.621-.3,5.484,5.484,0,0,0,3.127,1,5.6,5.6,0,1,0-5.493-5.887l-.007.285a7.818,7.818,0,1,1-7.816-7.961,7.7,7.7,0,0,1,4.227,1.239,1.223,1.223,0,0,1,.347,1.65,1.175,1.175,0,0,1-1.621.355,5.267,5.267,0,0,0-2.953-.884,5.6,5.6,0,1,0,5.493,5.887l.007-.285a7.932,7.932,0,0,1,7.816-7.961Z" transform="translate(-537.58 -595.589)"/><g transform="translate(20.938 20.453)"><path class="e" d="M407.374,76.917V95.488l15.7,7.014Z" transform="translate(-391.675 -76.917)"/><path class="f" d="M407.374,76.917V95.488l15.7,7.014Z" transform="translate(-391.675 -76.917)"/><path class="g" d="M395.149,76.917,379.45,102.5l15.7-7.014Z" transform="translate(-379.45 -76.917)"/><path class="f" d="M395.149,76.917,379.45,102.5l15.7-7.014Z" transform="translate(-379.45 -76.917)"/><path class="h" d="M407.374,136.737v12.619l15.707-21.731Z" transform="translate(-391.675 -99.116)"/><path class="f" d="M407.374,136.737v12.619l15.707-21.731Z" transform="translate(-391.675 -99.116)"/><path class="i" d="M395.149,149.356V136.735l-15.7-9.11Z" transform="translate(-379.45 -99.116)"/><path class="f" d="M395.149,149.356V136.735l-15.7-9.11Z" transform="translate(-379.45 -99.116)"/><path class="h" d="M407.374,126.082l15.7-9.114-15.7-7.01Z" transform="translate(-391.675 -91.382)"/><path class="f" d="M407.374,126.082l15.7-9.114-15.7-7.01Z" transform="translate(-391.675 -91.382)"/><path class="j" d="M379.45,116.967l15.7,9.114V109.957Z" transform="translate(-379.45 -91.381)"/><path class="f" d="M379.45,116.967l15.7,9.114V109.957Z" transform="translate(-379.45 -91.381)"/></g></g></g></svg>