<svg xmlns="http://www.w3.org/2000/svg" xmlns:xlink="http://www.w3.org/1999/xlink" width="614" height="410" viewBox="0 0 614 410"><defs><style>.a,.ab,.e,.f,.n,.o,.p,.t,.u,.v,.w,.y,.z{fill:none;}.b{clip-path:url(#a);}.c{fill:#f1ebff;}.d{fill:#fff;}.e,.v{stroke:#7a5ce0;}.e,.f,.n,.o,.p,.t,.u,.v,.w,.y,.z{stroke-linecap:round;stroke-linejoin:round;}.f{stroke:#000;stroke-width:2px;}.g{fill:#7a5ce0;}.h{fill:#dacafc;}.i{fill:#1c1c1b;}.j{fill:#ff6363;}.k{fill:#1d1d1b;}.l{clip-path:url(#c);}.m{clip-path:url(#d);}.n{stroke:#1d1d1b;}.o{stroke:#081132;}.o,.t{stroke-width:0.5px;}.ab,.p{stroke:#634ab5;}.p{stroke-width:4px;}.q{fill:#634ab5;}.r{fill:#dc8b77;}.s{fill:#ae96ff;}.t{stroke:#1c1c1b;}.u{stroke:#ff6363;}.v{stroke-width:0.84px;}.w{stroke:#fff;}.x{fill:#bfa7f2;}.y{stroke:#ae96ff;stroke-width:5px;}.z{stroke:#627eea;}.aa{fill:#a4fcf5;}.ab{stroke-miterlimit:10;}.ac{fill:#cfc3fb;}.ad{fill:#cdaefb;}.ae{fill:#80a4f7;}.af{fill:#82a9f9;}</style><clipPath id="a"><rect class="a" width="496.601" height="354.522"/></clipPath><clipPath id="c"><path class="a" d="M78.811,165.987c-1.05,4.235-1.137,8.193-3.674,11.986a13.565,13.565,0,0,1-3.44,3.649A5.026,5.026,0,0,1,68.948,183a6.6,6.6,0,0,1-.915.082c-.125.018-.242.052-.37.064a.652.652,0,0,1-.377-.076c-1.907-.084-3.876-.537-5.343.588a5.069,5.069,0,0,0-1.459,2.139c-2.485,5.944-.738,13.687,2.4,19.035,2.394,4.075,6.6,7.845,11.17,9.125,4.353,1.219,8.9.19,13.037-1.325,1.816-.664,3.541-1.323,5.2-2.088,4.988-2.3,9.292-4.869,10.6-10.555.021-.1.043-.192.062-.288.027-.14.038-.28.056-.421-.913-3.3-5.617-3.247-8.261-4.636a5.711,5.711,0,0,1-1.384-1.028c-.052-.053-.1-.1-.155-.159a6.266,6.266,0,0,1-1.533-3.355c-.8-5.318,1.927-10.112,4.274-14.783a1.567,1.567,0,0,0-.278-.36,3.335,3.335,0,0,0-2.34-.566,14.671,14.671,0,0,1-8.464-2.805,25.042,25.042,0,0,1-3.285-2.907c-.585-.6-1.66-2.689-2.553-2.764h-.017a.531.531,0,0,0-.2.069" transform="translate(-59.304 -165.918)"/></clipPath><clipPath id="d"><rect class="a" width="608.601" height="404.522"/></clipPath></defs><g transform="translate(-36 -25.739)"><rect class="a" width="614" height="409.739" transform="translate(36 26)"/><g transform="translate(38.699 25.739)"><g transform="translate(56 41)"><g class="b"><path class="c" d="M402.165,303.82c-29.944-34.877-78.86-52.16-123.926-43.787-12.667,2.353-25.142,6.662-35.7,14.077s-19.111,18.132-22.493,30.628c-4.58,16.92,1.282,36.241,14.476,47.713,9.4,8.172,21.615,12.226,33.682,15.206a257.98,257.98,0,0,0,72.979,7.272c14.452-.63,29.115-2.554,42.254-8.636,12.131-5.615,23.5-15.9,29.6-27.995,6.272-12.43-2.851-25.131-10.876-34.477" transform="translate(-34.877 -41.173)"/><path class="c" d="M498.772,283.871c5.513-8.8,12.167-17.1,20.79-22.853s19.441-8.724,29.516-6.356S568.036,265.4,569.419,275.7c1.023,7.63-1.921,15.2-5.226,22.144-7.764,16.31-18.341,31.955-33.655,41.441-12.183,7.546-38.013,15.319-44.982-2.8-6.4-16.647,4.66-38.957,13.217-52.62" transform="translate(-77.199 -40.518)"/></g></g><g transform="translate(160.784 1.763)"><path class="d" d="M321.081.544c-35.251,1.645-69.964,7.333-102.02,21.32-36.483,15.919-54.9,62.213-50.444,99.714,3.711,31.247,24.2,60.726,53.75,73.351,18.447,7.883,41.992,10.9,61.918,13.458q37.865,4.853,75.731,9.72c22.4,2.876,46.07,6.264,63.578,20.19,9.312,7.407,16.156,17.276,24.139,26.033,2.25,2.469,4.767,4.958,8.034,5.832,4.262,1.139,8.858-.8,12.1-3.721s5.466-6.739,7.937-10.309c13.029-18.836,33.388-31.358,52.51-44.341s38.366-27.955,47.111-49.014c12.855-30.952,1.239-71.636-17.687-98C538.537,38.03,507,21.6,475.421,12.845,447.306,5.053,417.929,2.716,388.74,1.233,374.46.507,360.048,0,345.64,0c-8.2,0-16.394.164-24.559.544" transform="translate(-167.963)"/></g><g transform="translate(56 41)"><g class="b"><path class="e" d="M382.561,344.384H283.278a3.455,3.455,0,0,1-3.6-3.289V276.973a4.137,4.137,0,0,0-4.31-3.939H147.136" transform="translate(-23.486 -36.451)"/><path class="f" d="M163.675,390.8l15.039-108.407a.3.3,0,0,1,.6-.021l16.4,108.428" transform="translate(-26.126 -45.031)"/><path class="f" d="M67.606,397.032,84.64,326.3l25.921,70.727" transform="translate(-10.791 -52.085)"/><path class="g" d="M22.555,290.454c-.167-.462-.347-.918-.5-1.389q.228.707.5,1.389" transform="translate(-3.521 -46.14)"/><path class="g" d="M27.767,238.439c1.976,4.664,4.176,9.227,6.343,13.8a124.843,124.843,0,0,0,7.535,14.136,113.51,113.51,0,0,0,21.916,24.732c9.033,7.729,19.419,13.708,30.05,18.909.088.044.176.083.265.125-2.207.085-4.415.1-6.617.026a89.754,89.754,0,0,1-13.118-1.48A53.329,53.329,0,0,0,86,310.594a89,89,0,0,0,20.057-1.571c6.533-1.287,13.116-3.373,18.689-7.125a25.411,25.411,0,0,0,6.6-6.274,20.233,20.233,0,0,0,2.318-4.3c-.039-.164-.066-.331-.109-.493-3.221-11.812-13.485-13.351-22.677-18.6a66.313,66.313,0,0,1-23.786-23.139c-5.373-8.889-8.527-18.85-12.823-28.26-4.007-8.78-9.209-13.308-18.384-16.533-6.807-2.393-14.326-4.033-21.16-1.721-6.093,2.062-10.6,6.972-13.485,12.846.483,7.947,3.5,15.866,6.527,23.015" transform="translate(-3.39 -32.158)"/><path class="h" d="M143.418,264.725c.049-4.623-.084-8.827,1.107-13.429,1.577-6.094,6.252-9.422,12.081-11.3a6.1,6.1,0,0,1,3.951-.239,5.636,5.636,0,0,1,2.956,3.441c1.834,4.707.879,9.988-.1,14.946q-3.288,16.65-6.576,33.3a2.263,2.263,0,0,1-.881,1.667,2.181,2.181,0,0,1-1.461.052,63.112,63.112,0,0,1-14.286-4.689c1.914.893,3.2-22.714,3.208-23.749" transform="translate(-22.38 -38.232)"/><path class="h" d="M155.718,346.992a76.34,76.34,0,0,0,8.994-2.758c.006,16.124,2.259,43.311,2.186,47.951-4.526.514-8.068,2.193-12.646,2.243-3.59-5.589-5.054-21.408-7.083-27.523-.469-1.413-2.514-8.473-4.8-16.508,4.48-1.009,8.929-2.155,13.349-3.405" transform="translate(-22.725 -54.946)"/><path d="M147.022,306.4c5.217,1.208,10.572,1.763,15.862,2.547,2.787.413,8.484,2.007,11.114.049,3.324-2.475-2.121-3.921-4.585-5.306-4.243-2.384-8.547-4.656-12.824-6.976-3.951-2.143-9.024-6.71-13.054-2.292-2.592,2.843-2.888,7.377-3.184,11.022a34.83,34.83,0,0,1,6.672.956" transform="translate(-22.403 -46.698)"/><path class="i" d="M47.766,284.824c2.413-7.658,13.333-9.413,20.074-8.869,14.028,1.13,28.1,1.476,42.047,2.623,11.364.935,23.732,3.405,31.546,12.513,6.386,7.443,7.416,17.687,9.225,27.014,3.347,17.272,4.284,33.466,3.894,50.967a1.526,1.526,0,0,1-1.708,1.792l-20.011,2.693a1.343,1.343,0,0,1-1.816-1.217c-1.042-3.6-14.8-58.723-13.829-58.878-11.519,1.837-20.628,1.3-32.253.366-8.216-.663-16.576-2.09-23.743-6.18-6.929-3.954-16.217-13.963-13.426-22.822" transform="translate(-7.543 -44.033)"/><path class="j" d="M42.547,266.848c.828,1.248.764,2.383,1.177,3.062,2.111-.029,4.225,0,6.336.037,5.53.085,11.11.164,16.55-.985a111.722,111.722,0,0,0,14-4.057c7.037-2.484,13.637-4.237,13.119-12.9-.65-11.167-1.993-25.237,1.142-36.128,1.266-4.4,1.954-7.674,3.848-11.834a10.26,10.26,0,0,0,1.118-3.577,9.039,9.039,0,0,0-.34-2.664c-3.5-14.292-15.388-14.465-28-15.586a22.755,22.755,0,0,0-5.864-.014,21.782,21.782,0,0,0-7.238,2.367c-11.053,6.666-11.8,17.865-15.128,29.434C41.6,219.779,39,225.25,37.331,231.026a42.454,42.454,0,0,0,5.215,35.821" transform="translate(-5.669 -29.053)"/><path d="M171.76,400.16a26.019,26.019,0,0,0,4.84,1.658c3.758,1.138,7.653,1.78,11.359,3.1,1.945.689,3.8,3.133,1.686,4.864a6.3,6.3,0,0,1-3.346,1.082c-9.4,1.093-18.912.561-28.365.028a2.152,2.152,0,0,1-1.444-.444,2.1,2.1,0,0,1-.426-.764,76.341,76.341,0,0,1-2.665-9.5c1.266-.311,2.608.22,3.881.317,1.651.126,3.457.258,4.964-.577a23.991,23.991,0,0,0,5.531-4.22,1.592,1.592,0,0,1,.508-.4c.658-.268,1.3.448,1.526,1.126.433,1.32.456,2.8,1.7,3.588.08.051.164.1.25.149" transform="translate(-24.485 -63.088)"/><path class="i" d="M134.746,258.48c-.113-1.57.008-3.026,1.466-3.577,2.012-.761,2.693.315,3.979-1.782,2.478-4.04,4.238-9.087,5.915-13.515,2.022-5.336,5.833-12.3,5.632-18.034a1.171,1.171,0,0,0-1.1-1.339,28.7,28.7,0,0,0-9.159-.5c-20.209,1.306-31.492,23.334-41.052,38.419-1.441,2.275-9.839,13.224-12.044,13.049,7.724.614,13.671,4.547,20.815,6.717,4.384,1.331,9.207,5.262,13.31,5.826,1.327.182,6.737-9.815,7.526-11.124,2.068-3.432,4.989-7.344,4.925-11.506-.013-.818-.15-1.742-.214-2.63" transform="translate(-14.108 -35.052)"/><path class="i" d="M166.647,259.182a86.874,86.874,0,0,1-1.832,10.043,1.855,1.855,0,0,1-.356.815,1.634,1.634,0,0,1-1.327.376,22.447,22.447,0,0,1-2.957-.54c-6.134-1.181-16.337,2.967-21.058-2.782a8.17,8.17,0,0,1-1.45-4.187c-1.442-10.724,1.967-21.2,1.821-31.976-.077-5.755,2.049-9.227,4.958-13.923,2.79-4.5,6.717-6.035,11.751-4.318,8.482,2.893,13.333,11.927,12.936,20.513-.4,8.663-1.329,17.352-2.486,25.979" transform="translate(-21.917 -33.84)"/><path class="h" d="M78.279,165.874c-.082,1.039,2.081,3.413,2.742,4.162a9.745,9.745,0,0,0,3.745,2.69c3.841,1.523,7.868,1.663,10.878-1.52a17.58,17.58,0,0,0,3.214-5.316c1.24-2.922,2.97-10.98,2.185-14.057-.713-2.793-3.692-.359-6.4-1.3-2.36-.815-4.157-1.545-6.68-1.1a9.339,9.339,0,0,0-5.817,3.343c-.38.494-.724.993-1.04,1.494a34.593,34.593,0,0,0-1.93,4.907,32.954,32.954,0,0,0-.778,4.269c-.017.812-.052,1.623-.116,2.43" transform="translate(-12.494 -23.831)"/><path class="h" d="M75.093,187.1a15.915,15.915,0,0,0,7.705,2.832c.521.043,7.152-.7,6.2-1.961-2.487-3.3-1.129-6.241.432-9.827.24-.551,2.329-3.939,2.112-4.32a1.291,1.291,0,0,0-.233-.3,2.794,2.794,0,0,0-1.966-.477,12.327,12.327,0,0,1-7.114-2.357,21.031,21.031,0,0,1-2.76-2.443c-.492-.5-1.4-2.26-2.146-2.323a.382.382,0,0,0-.185.057c-.883,3.559-1.316,6.67-3.088,10.074-1.372,2.635-4.761,3.939-5.72,4.115a22.986,22.986,0,0,0,6.763,6.932" transform="translate(-10.907 -26.484)"/><path class="k" d="M83.614,158.8c.068-.547.134-1.214.635-1.44s1.059.186,1.6.308c1.743.392,3.35-1.51,4.346-2.715.2-.245.4-.471.6-.68a4.752,4.752,0,0,1,4.251-1.6c1.914.158,3.83.822,5.714.452a5.718,5.718,0,0,0,4.321-4.246c.792-3.372-1.96-7.863-5.757-7.229-1.024.171-2.132.691-3.033.171a4.306,4.306,0,0,1-1.14-1.314,5.19,5.19,0,0,0-6.023-1.652,17.6,17.6,0,0,1-1.614.734,9.63,9.63,0,0,1-3.373.018,6.127,6.127,0,0,0-3.834.921,3.616,3.616,0,0,0-1.6,3.463,3.9,3.9,0,0,1,.17,1.166c-.176,1.38-2.36,1.435-3.012,2.661-.626,1.177.516,2.624.193,3.918-.192.77-.883,1.368-.962,2.158-.1.977.8,1.663,1.181,2.478a9.843,9.843,0,0,1,.913,3.069c.179,2.035-1.047,4.225,1.95,3.971a5.021,5.021,0,0,0,4.469-4.619" transform="translate(-11.986 -22.106)"/><path class="j" d="M124.246,218.7c1.182,1.425,2.151,2.893,5.552,2.668a14.543,14.543,0,0,0,10.992-6.112,7.909,7.909,0,0,0,1.413-3.334c.982-7.273-7.163-11.987-12.36-14.929a100.532,100.532,0,0,0-18.9-7.834c-5.76-1.853-11.779-5.073-17.982-4.574a2.792,2.792,0,0,0-.492.086c.066.807.108,1.616.115,2.425a47.333,47.333,0,0,1,5.74,14.965c.74,3.341,2.392,7.2,2.056,10.641q10.29,1.422,20.435,3.722a5.813,5.813,0,0,1,3.428,2.277" transform="translate(-14.76 -29.456)"/><path class="h" d="M139.146,206.865a8.46,8.46,0,0,0-6.106,4.605,25.177,25.177,0,0,0-2.267,7.606c-1.39,7.468-1.844,16.129-4.334,23.288-1.548,4.447-7.568,10.583-4.59,15.656a4.315,4.315,0,0,0,4.406,2.01c2.989-.566,4.383-3.933,5.653-6.71,1.639-3.581,4.071-6.336,6.242-9.481,2.715-3.933,4.682-8.757,6.648-13.1,2.52-5.57,4.753-11.919,2.7-17.677-1.26-3.526-4.628-6.605-8.348-6.2" transform="translate(-19.319 -33.014)"/></g></g><g class="m"><path class="j" d="M44.163,192.86c-4.343,4.991-6.126,11.721-7.6,18.024Q33.7,223.1,30.837,235.324a29.222,29.222,0,0,0-.954,5.8,42.779,42.779,0,0,0,1.546,10.2c.945,3.9,3.264,3.656,6.716,3.311,5.459-.545,12.886-2.205,16.572-6.681,1.751-2.128,2.314-4.971,2.819-7.685l2.082-11.2c2.836-15.252,5.671-30.985,2.462-46.162a28.758,28.758,0,0,0-17.919,9.951" transform="translate(51.231 11.804)"/><path class="n" d="M66.382,212.77c-6.31,1.652-5.745,9.77-6.317,14.778a147.846,147.846,0,0,1-4.2,21.911" transform="translate(47.082 7.038)"/><path class="o" d="M146.621,234.016c-2.414,10.465-7.942,26.36-8.046,37.1" transform="translate(33.881 3.647)"/><path class="d" d="M94.515,169.9a2.811,2.811,0,0,0,2.114,1.834,2.542,2.542,0,0,0,2.421-1.189" transform="translate(40.914 13.88)"/><path class="p" d="M24.969,274.689c17.477-3.988,32.289-6.9,48.019.536,10.243,4.845,17.156,13.867,19.1,23.468s-1.179,16.329-9.6,20.559" transform="translate(52.014 -2.197)"/><path class="o" d="M133.861,319.886c-.478-3.641-.584-8.152-1.062-11.793" transform="translate(34.803 -8.178)"/><path class="o" d="M132.606,282.2c-11.251-1.72-18.491-.213-32.976-.213" transform="translate(40.097 -3.913)"/><path class="h" d="M81.193,161.559a3.333,3.333,0,1,0,3.333-3.351,3.342,3.342,0,0,0-3.333,3.351" transform="translate(43.04 15.747)"/><path class="q" d="M93.8,313.121c-.088-.043-.959-.408-1.046-.45-10.632-5.2-21.018-11.18-30.05-18.909a113.515,113.515,0,0,1-21.916-24.732,124.689,124.689,0,0,1-7.534-14.135c-2.168-4.577-4.369-9.138-6.344-13.8-3.027-7.148-6.044-15.068-6.526-23.015A37.942,37.942,0,0,0,17.063,228.5c-2.563,15.425-.809,34.318,4.009,49.23.152.471.332.927.5,1.39,3.214,8.874,9.694,16.8,21.822,23.711C64.9,315.1,81.963,313.26,86.369,313.4c2.2.071,5.227-.2,7.435-.282" transform="translate(53.464 6.191)"/><path class="h" d="M53.265,248.241c3.384.744,6.705,1.831,10.027,2.841,5.276,1.6,10.62,2.53,15.979,3.963a18.8,18.8,0,0,0,4.644.819c2.709.026,5.325-1.076,8.033-1.135a10.906,10.906,0,0,1,9.128,4.976c3.314,5.092-2.179,3.728-5.636,3.677l-8.089-.118A310.108,310.108,0,0,0,56.1,264.548c-5.777.488-15.846,1.849-20.985-1.6-2.5-1.674-6.611-9.822-4.32-12.258a4.326,4.326,0,0,1,1.6-.945A34.41,34.41,0,0,1,48.811,247.5a40.7,40.7,0,0,1,4.455.74" transform="translate(51.192 1.525)"/><line class="r" x1="0.192" transform="translate(182.165 258.391)"/><path class="q" d="M20.115,242.951c.178,2.173.531,4.347.876,6.454.44,2.69.882,5.383,1.54,8.028a16.409,16.409,0,0,0,2.856,6.5,10.04,10.04,0,0,0,10.648,2.994c2.9-.962,2.5-2,1.264-4.416-2.562-5.01-5.225-10.251-7.426-15.462-2.23-5.281-4.284-10.28-6.112-15.713-.386-1.146-.771-2.293-1.105-3.455a40.158,40.158,0,0,1-1.137-5.283,23.6,23.6,0,0,1-.4,5.2q-.266,2.723-.645,5.433a43.867,43.867,0,0,0-.356,9.722" transform="translate(52.81 5.469)"/><path class="f" d="M1,390.8,16.766,282.392a.317.317,0,0,1,.625-.021L34.579,390.8" transform="translate(55.84 -4.031)"/><rect class="s" width="156.182" height="4.812" transform="translate(62.922 274.942)"/><path class="t" d="M86.487,161.344a1.884,1.884,0,0,0-2.826-1.16" transform="translate(42.646 15.479)"/><path d="M135.156,278H64.86a1.281,1.281,0,0,1-1.282-1.282v-.766a1.281,1.281,0,0,1,1.282-1.281h70.3a1.281,1.281,0,0,1,1.282,1.281v.766A1.282,1.282,0,0,1,135.156,278" transform="translate(45.852 -2.843)"/><path d="M138.72,271.431H76.459l5.417-35.756a2.528,2.528,0,0,1,2.467-2.167H141.67a2.425,2.425,0,0,1,2.367,2.833Z" transform="translate(43.796 3.728)"/><line class="u" x2="2.7" y2="2.257" transform="translate(155.964 254.981)"/><line class="u" x2="2.7" y2="2.257" transform="translate(152.415 254.981)"/><path class="n" d="M128.939,218.312a12.3,12.3,0,0,0,2.126,6.847" transform="translate(35.421 6.153)"/><path class="j" d="M469.767,178.115a10.86,10.86,0,0,0-1.972.791,1.724,1.724,0,0,1,.13.14,1.831,1.831,0,0,1-.355,2.555,1.808,1.808,0,0,1-2.542-.356,1.931,1.931,0,0,1-.108-.178,11.049,11.049,0,0,0-1.321,1.681,1.774,1.774,0,0,1,.193.061,1.823,1.823,0,0,1-1.414,3.36,1.75,1.75,0,0,1-.2-.112,11.058,11.058,0,0,0-.311,2.137,1.764,1.764,0,0,1,.221-.051,1.824,1.824,0,0,1,.446,3.621,1.772,1.772,0,0,1-.258.006,11.015,11.015,0,0,0,.8,2.027,1.986,1.986,0,0,1,.189-.176,1.808,1.808,0,0,1,2.541.357,1.83,1.83,0,0,1-.355,2.555,1.8,1.8,0,0,1-.239.146,11.082,11.082,0,0,0,1.712,1.361,1.9,1.9,0,0,1,.082-.266,1.816,1.816,0,1,1,3.342,1.422,1.791,1.791,0,0,1-.143.262,10.938,10.938,0,0,0,2.171.313,1.855,1.855,0,0,1-.063-.282,1.815,1.815,0,1,1,3.608-.147,10.871,10.871,0,0,0,2.035-.823,1.88,1.88,0,0,1-.195-.212,1.831,1.831,0,0,1,.355-2.555,1.81,1.81,0,0,1,2.542.356,1.833,1.833,0,0,1,.15.248,11.153,11.153,0,0,0,1.343-1.73,1.788,1.788,0,0,1-.257-.081,1.822,1.822,0,0,1,1.414-3.359,1.677,1.677,0,0,1,.235.129,11.072,11.072,0,0,0,.3-2.159,1.741,1.741,0,0,1-.24.055,1.824,1.824,0,0,1-.446-3.62,1.778,1.778,0,0,1,.24-.006,11,11,0,0,0-.808-2,1.816,1.816,0,1,1-2.348-2.762,1.91,1.91,0,0,1,.185-.113,11.16,11.16,0,0,0-1.682-1.319,1.9,1.9,0,0,1-.058.19,1.817,1.817,0,1,1-3.246-1.6,10.9,10.9,0,0,0-2.1-.3,1.841,1.841,0,0,1,.04.182,1.814,1.814,0,1,1-3.6.448,1.754,1.754,0,0,1-.005-.2m2.166,3.236a7.433,7.433,0,1,1-6.431,8.29,7.4,7.4,0,0,1,6.431-8.29" transform="translate(-17.723 12.638)"/><path class="j" d="M472.246,198.033a8.968,8.968,0,1,0-7.872-9.911,8.942,8.942,0,0,0,7.872,9.911m-4.636-9.484a5.681,5.681,0,0,1,6.288-4.78,5.4,5.4,0,0,1,4.97,5.923,5.681,5.681,0,0,1-6.288,4.78,5.4,5.4,0,0,1-4.97-5.923" transform="translate(-18.114 12.244)"/><path class="j" d="M399.268,198.006a8.7,8.7,0,0,0-1.607.662,1.45,1.45,0,0,1,.106.119,1.577,1.577,0,0,1-.282,2.155,1.419,1.419,0,0,1-2.162-.458,9.3,9.3,0,0,0-1.074,1.415,1.4,1.4,0,0,1,.159.051,1.571,1.571,0,0,1,.792,2.019,1.4,1.4,0,0,1-2.1.717,9.525,9.525,0,0,0-.249,1.8,1.567,1.567,0,0,1,.181-.042,1.54,1.54,0,0,1,.372,3.056,1.467,1.467,0,0,1-.21.005,9.546,9.546,0,0,0,.655,1.712,1.428,1.428,0,0,1,.154-.148,1.447,1.447,0,0,1,2.074.307,1.578,1.578,0,0,1-.283,2.155,1.372,1.372,0,0,1-.195.123,9.169,9.169,0,0,0,1.4,1.153,1.542,1.542,0,0,1,.066-.224,1.452,1.452,0,0,1,1.937-.812,1.55,1.55,0,0,1,.676,2.24,8.561,8.561,0,0,0,1.771.27,1.659,1.659,0,0,1-.053-.238,1.481,1.481,0,1,1,2.937-.369,1.62,1.62,0,0,1,.006.255,8.649,8.649,0,0,0,1.658-.689,1.635,1.635,0,0,1-.16-.179,1.578,1.578,0,0,1,.283-2.155,1.446,1.446,0,0,1,2.074.308,1.64,1.64,0,0,1,.123.209,9.266,9.266,0,0,0,1.091-1.457,1.491,1.491,0,0,1-.21-.068,1.569,1.569,0,0,1-.792-2.019,1.452,1.452,0,0,1,1.937-.812,1.543,1.543,0,0,1,.192.11,9.577,9.577,0,0,0,.236-1.82,1.43,1.43,0,0,1-1.85-1.3,1.517,1.517,0,0,1,1.282-1.712,1.376,1.376,0,0,1,.2,0,9.523,9.523,0,0,0-.663-1.691,1.429,1.429,0,0,1-.131.126,1.446,1.446,0,0,1-2.074-.308,1.576,1.576,0,0,1,.283-2.155,1.406,1.406,0,0,1,.15-.094,9.2,9.2,0,0,0-1.375-1.117,1.518,1.518,0,0,1-.047.16,1.453,1.453,0,0,1-1.938.812,1.508,1.508,0,0,1-.713-2.17,8.694,8.694,0,0,0-1.715-.256c.011.051.027.1.034.154a1.481,1.481,0,1,1-2.936.369,1.615,1.615,0,0,1,0-.168m1.774,2.736a6.278,6.278,0,1,1-5.224,6.979,6.128,6.128,0,0,1,5.224-6.979" transform="translate(-6.706 9.451)"/><path class="j" d="M401.6,214.082a6.422,6.422,0,0,0,7.052-5.849,6.65,6.65,0,0,0-5.666-7.368,6.421,6.421,0,0,0-7.052,5.848,6.651,6.651,0,0,0,5.666,7.369m-3.818-7.1a4.55,4.55,0,0,1,5.026-3.946,4.463,4.463,0,0,1,4,4.92,4.55,4.55,0,0,1-5.025,3.946,4.463,4.463,0,0,1-4-4.92" transform="translate(-7.193 8.945)"/><path class="j" d="M428.907,176.415a19.163,19.163,0,0,0-3.471,1.392,3.192,3.192,0,1,1-4.867,4.116,2.954,2.954,0,0,1-.19-.314,19.566,19.566,0,0,0-2.325,2.958,3.136,3.136,0,0,1,.341.107,3.207,3.207,0,0,1-2.489,5.911,3.021,3.021,0,0,1-.355-.2,19.36,19.36,0,0,0-.548,3.759,3.116,3.116,0,0,1,.389-.089,3.21,3.21,0,0,1,.784,6.372,3.282,3.282,0,0,1-.454.01,19.424,19.424,0,0,0,1.4,3.567,3.1,3.1,0,0,1,4.8.318,3.221,3.221,0,0,1-.624,4.5,3.172,3.172,0,0,1-.421.257,19.5,19.5,0,0,0,3.013,2.4,3.19,3.19,0,1,1,6.025,2.035,3.249,3.249,0,0,1-.251.461,19.125,19.125,0,0,0,3.82.551,3.193,3.193,0,1,1,6.238-.754,19.155,19.155,0,0,0,3.581-1.448,3.083,3.083,0,0,1-.343-.372,3.22,3.22,0,0,1,.624-4.5,3.182,3.182,0,0,1,4.472.627,3.235,3.235,0,0,1,.264.436,19.56,19.56,0,0,0,2.363-3.046,3.1,3.1,0,0,1-.453-.141,3.208,3.208,0,1,1,2.9-5.684,19.409,19.409,0,0,0,.521-3.8,3.031,3.031,0,0,1-.421.1,3.21,3.21,0,0,1-.784-6.371,3.07,3.07,0,0,1,.421-.009,19.337,19.337,0,0,0-1.42-3.522,3.074,3.074,0,0,1-4.756-.363,3.221,3.221,0,0,1,.624-4.5,3.169,3.169,0,0,1,.325-.2,19.468,19.468,0,0,0-2.958-2.32A3.065,3.065,0,0,1,440.4,180.7a3.216,3.216,0,0,1-1.7-4.207,3.284,3.284,0,0,1,.17-.313,19.129,19.129,0,0,0-3.7-.524,3.088,3.088,0,0,1,.072.319,3.193,3.193,0,1,1-6.337.788,3.041,3.041,0,0,1-.008-.35m3.922,6.6a12.167,12.167,0,1,1-10.525,13.57,12.118,12.118,0,0,1,10.525-13.57" transform="translate(-10.242 12.962)"/><path class="v" d="M433.543,210.728A14.863,14.863,0,1,0,420.494,194.3,14.821,14.821,0,0,0,433.543,210.728Zm-8.226-15.884a9.934,9.934,0,1,1,8.766,11.036A9.958,9.958,0,0,1,425.317,194.844Z" transform="translate(-11.104 12.094)"/><path class="s" d="M484.329,101.146a11.874,11.874,0,0,1,12.346-11.93,11.676,11.676,0,0,1,6.081,2.06,13.908,13.908,0,0,1,11.189-4.793c6.083.292,11.969,4.427,12.46,10.1a13.613,13.613,0,0,1,5.213,23.653,8.361,8.361,0,0,1-.661,6.884,7,7,0,0,1-3.14,2.964,8.175,8.175,0,0,1-6.648.333l-.154,11.2a.687.687,0,0,1-1.252.383l-5.826-8.453c-5.43,2.234-10.3-1.117-10.664-6.075a9.663,9.663,0,0,1-4.8,1.019,9.811,9.811,0,0,1-9.285-9.047,9.98,9.98,0,0,1-9.8.2,8.8,8.8,0,0,1-4.262-4.742,9.9,9.9,0,0,1,9.206-13.749" transform="translate(-19.722 27.198)"/><path class="w" d="M533.94,120.241a8.027,8.027,0,0,1,7.039,4.988" transform="translate(-29.227 21.807)"/><path class="w" d="M492.085,122.943a9.813,9.813,0,0,1,10.248-9.364" transform="translate(-22.546 22.872)"/><path class="w" d="M485.222,103.942a9.759,9.759,0,0,1,5.614,1.31" transform="translate(-21.451 24.413)"/><path class="w" d="M498.457,94.965a7.891,7.891,0,0,1,7.481,8.275" transform="translate(-23.563 25.842)"/><path class="w" d="M505.213,129.537a6.971,6.971,0,0,1-7.587-6.306" transform="translate(-23.431 21.33)"/><path class="w" d="M480.517,117.02a6.306,6.306,0,0,1,3.867-8.013" transform="translate(-20.644 23.6)"/><path class="w" d="M536.376,129.524a4.749,4.749,0,0,1-5.989,3.072" transform="translate(-28.66 20.325)"/><path class="w" d="M523.9,100.371A13.163,13.163,0,0,1,534.126,98.4" transform="translate(-27.625 25.34)"/><path class="w" d="M538.718,105.675a8.064,8.064,0,0,1,3.251,6.352" transform="translate(-29.99 24.132)"/><path class="w" d="M513.713,109.248a6.243,6.243,0,0,1,6.378,2.778,6.316,6.316,0,0,1-.355,6.978" transform="translate(-25.998 23.58)"/><path class="w" d="M512.527,123.5a3.526,3.526,0,0,0,.831,5.768" transform="translate(-25.626 21.286)"/><g transform="translate(454.669 50.075)"><path class="g" d="M483.07,35.131l.364,35.468-7.393.04-.364-35.469Z" transform="translate(-439.225 -35.131)"/><path class="j" d="M468.6,42.108l.3,29.695-7.392.039-.305-29.695Z" transform="translate(-436.915 -36.245)"/><path class="g" d="M446.733,47.464l.26,25.322,7.392-.039-.259-25.282Z" transform="translate(-434.605 -37.1)"/><path class="j" d="M439.694,61.452l.139,13.61-7.392.039-.14-13.61Z" transform="translate(-432.301 -39.332)"/></g><path class="x" d="M207.026,78.861h0a1.566,1.566,0,0,0,1.562,1.571h30.06a1.571,1.571,0,0,0,0-3.141h-30.06a1.566,1.566,0,0,0-1.562,1.571" transform="translate(22.955 28.663)"/><path class="x" d="M261.906,77.29H252.3a1.571,1.571,0,0,0,0,3.141h9.607a1.571,1.571,0,0,0,0-3.141" transform="translate(15.978 28.663)"/><path class="x" d="M247.112,86.49H219.764a1.57,1.57,0,0,0,0,3.141h27.348a1.57,1.57,0,0,0,0-3.141" transform="translate(21.171 27.195)"/><path class="x" d="M257.611,88.061h0a1.566,1.566,0,0,0,1.562,1.571H265a1.571,1.571,0,0,0,0-3.141h-5.822a1.566,1.566,0,0,0-1.562,1.571" transform="translate(14.88 27.195)"/><path class="x" d="M212.03,86.49h-3.442a1.57,1.57,0,0,0,0,3.141h3.442a1.57,1.57,0,0,0,0-3.141" transform="translate(22.955 27.195)"/><path class="x" d="M197.881,86.49H184.1a1.57,1.57,0,0,0,0,3.141h13.778a.942.942,0,0,0,.94-.944V87.435a.942.942,0,0,0-.94-.945" transform="translate(26.863 27.195)"/><path class="x" d="M223.352,96.642h0a1.566,1.566,0,0,0,1.562,1.571H258.94a1.571,1.571,0,0,0,0-3.141H224.914a1.566,1.566,0,0,0-1.562,1.571" transform="translate(20.349 25.825)"/><path class="x" d="M194.544,96.642h0a1.566,1.566,0,0,0,1.562,1.571h15.868a1.571,1.571,0,0,0,0-3.141H196.106a1.566,1.566,0,0,0-1.562,1.571" transform="translate(24.947 25.825)"/><path class="x" d="M180.636,105.841h0a1.566,1.566,0,0,0,1.562,1.571h2.093a1.571,1.571,0,0,0,0-3.141H182.2a1.566,1.566,0,0,0-1.562,1.571" transform="translate(27.167 24.357)"/><path class="x" d="M189.328,105.841h0a1.566,1.566,0,0,0,1.562,1.571h20.46a1.571,1.571,0,0,0,0-3.141H190.89a1.566,1.566,0,0,0-1.562,1.571" transform="translate(25.78 24.357)"/><path class="x" d="M221.366,105.841h0a1.566,1.566,0,0,0,1.562,1.571h7.52a1.571,1.571,0,0,0,0-3.141h-7.52a1.566,1.566,0,0,0-1.562,1.571" transform="translate(20.666 24.357)"/><path class="x" d="M239.495,105.841h0a1.566,1.566,0,0,0,1.562,1.571h7.728a1.571,1.571,0,0,0,0-3.141h-7.728a1.566,1.566,0,0,0-1.562,1.571" transform="translate(17.772 24.357)"/><path class="x" d="M258.867,105.841h0a1.566,1.566,0,0,0,1.562,1.571h4.18a1.571,1.571,0,0,0,0-3.141h-4.18a1.566,1.566,0,0,0-1.562,1.571" transform="translate(14.68 24.357)"/><path class="x" d="M201.249,115.041h0a1.566,1.566,0,0,0,1.562,1.571h2.928a1.571,1.571,0,0,0,0-3.141h-2.928a1.566,1.566,0,0,0-1.562,1.571" transform="translate(23.877 22.888)"/><path class="x" d="M215.813,115.041h0a1.566,1.566,0,0,0,1.562,1.571h14.7a1.571,1.571,0,0,0,0-3.141h-14.7a1.566,1.566,0,0,0-1.562,1.571" transform="translate(21.552 22.888)"/><path class="x" d="M240.792,115.041h0a1.566,1.566,0,0,0,1.562,1.571H253.84a1.571,1.571,0,0,0,0-3.141H242.354a1.566,1.566,0,0,0-1.562,1.571" transform="translate(17.565 22.888)"/><path class="x" d="M223.824,52.318h0a1.566,1.566,0,0,0,1.562,1.571h34.026a1.571,1.571,0,0,0,0-3.141H225.386a1.566,1.566,0,0,0-1.562,1.571" transform="translate(20.273 32.9)"/><path class="x" d="M237.533,42.8h-4.159a1.571,1.571,0,0,0,0,3.141h4.159a1.571,1.571,0,0,0,0-3.141" transform="translate(18.998 34.168)"/><path class="x" d="M223.172,42.8H209.046a1.571,1.571,0,0,0,0,3.141h14.126a1.571,1.571,0,0,0,0-3.141" transform="translate(22.882 34.168)"/><path class="x" d="M243.368,44.37h0a1.566,1.566,0,0,0,1.562,1.571h17.6a1.571,1.571,0,0,0,0-3.141h-17.6a1.566,1.566,0,0,0-1.562,1.571" transform="translate(17.154 34.168)"/><path class="x" d="M221.837,61.518h0a1.566,1.566,0,0,0,1.562,1.571h7.52a1.571,1.571,0,0,0,0-3.141H223.4a1.566,1.566,0,0,0-1.562,1.571" transform="translate(20.591 31.431)"/><path class="x" d="M239.967,61.518h0a1.566,1.566,0,0,0,1.562,1.571h7.728a1.571,1.571,0,0,0,0-3.141h-7.728a1.566,1.566,0,0,0-1.562,1.571" transform="translate(17.697 31.431)"/><path class="x" d="M258.269,61.518h0a1.566,1.566,0,0,0,1.562,1.571h5.693a1.571,1.571,0,0,0,0-3.141h-5.693a1.566,1.566,0,0,0-1.562,1.571" transform="translate(14.775 31.431)"/><path class="x" d="M230.357,70.717h0a1.566,1.566,0,0,0,1.562,1.571h8.772a1.571,1.571,0,0,0,0-3.141h-8.772a1.566,1.566,0,0,0-1.562,1.571" transform="translate(19.231 29.963)"/><path class="x" d="M201.721,70.717h0a1.566,1.566,0,0,0,1.562,1.571h2.928a1.571,1.571,0,0,0,0-3.141h-2.928a1.566,1.566,0,0,0-1.562,1.571" transform="translate(23.801 29.963)"/><path class="x" d="M212.4,70.717h0a1.566,1.566,0,0,0,1.562,1.571h6.476a1.571,1.571,0,0,0,0-3.141h-6.476a1.566,1.566,0,0,0-1.562,1.571" transform="translate(22.097 29.963)"/><path class="x" d="M251.391,70.717h0a1.566,1.566,0,0,0,1.562,1.571h11.485a1.571,1.571,0,0,0,0-3.141H252.953a1.566,1.566,0,0,0-1.562,1.571" transform="translate(15.873 29.963)"/><path class="x" d="M200.147,47.48a.735.735,0,0,1-.5-.2l-3.72-3.456L199.616,40a.738.738,0,0,1,1.047-.016.747.747,0,0,1,.015,1.052l-2.635,2.729,2.606,2.421a.747.747,0,0,1,.041,1.051.736.736,0,0,1-.544.239" transform="translate(24.726 34.651)"/><path class="x" d="M205.485,47.48a.735.735,0,0,1-.5-.2l-3.72-3.456L204.954,40A.738.738,0,0,1,206,39.988a.747.747,0,0,1,.016,1.052l-2.635,2.729,2.606,2.421a.747.747,0,0,1,.041,1.051.736.736,0,0,1-.544.239" transform="translate(23.874 34.651)"/><path class="x" d="M266.168,118.711a.736.736,0,0,1-.544-.239.746.746,0,0,1,.041-1.051L268.272,115l-2.635-2.729a.748.748,0,0,1,.016-1.052.738.738,0,0,1,1.047.016l3.69,3.823-3.72,3.456a.735.735,0,0,1-.5.2" transform="translate(13.633 23.281)"/><path class="x" d="M260.831,118.711a.736.736,0,0,1-.544-.239.746.746,0,0,1,.041-1.051L262.935,115l-2.635-2.729a.748.748,0,0,1,.016-1.052.738.738,0,0,1,1.047.016l3.69,3.823-3.72,3.456a.735.735,0,0,1-.5.2" transform="translate(14.485 23.281)"/><path class="s" d="M335.2,120.41h-.924a4.566,4.566,0,0,1-4.566-4.566V82.412a4.566,4.566,0,0,1,4.566-4.566h.924a4.566,4.566,0,0,1,4.566,4.566v33.433a4.565,4.565,0,0,1-4.566,4.566" transform="translate(3.371 28.574)"/><path class="s" d="M351.833,159.119l-.9.488a4,4,0,0,1-5.429-1.625L332.6,134a4.036,4.036,0,0,1,1.616-5.457l.9-.488a4,4,0,0,1,5.43,1.625l12.907,23.984a4.038,4.038,0,0,1-1.616,5.457" transform="translate(2.988 20.638)"/><path class="y" d="M351.839,179.66c-2.8-5.548-1.466-11.878,2.971-14.139s10.3.4,13.1,5.952" transform="translate(0.073 14.708)"/><path class="g" d="M337.415,123.127A1.617,1.617,0,1,1,335.8,121.5a1.621,1.621,0,0,1,1.617,1.625" transform="translate(2.658 21.606)"/><path class="g" d="M339.064,132.245a1.617,1.617,0,1,1-1.617-1.625,1.621,1.621,0,0,1,1.617,1.625" transform="translate(2.395 20.151)"/><ellipse class="z" cx="10.048" cy="10.101" rx="10.048" ry="10.101" transform="translate(328.64 98.294)"/><path class="g" d="M341.918,78.89a6.837,6.837,0,1,1-6.837-6.873,6.854,6.854,0,0,1,6.837,6.873" transform="translate(3.606 29.505)"/><path class="z" d="M351.839,179.66c-2.8-5.548-1.466-11.878,2.971-14.139s10.3.4,13.1,5.952" transform="translate(0.073 14.708)"/><path class="e" d="M326.184,73.591V60.572a9.357,9.357,0,0,0-9.332-9.381h-45.57" transform="translate(12.698 32.829)"/><rect class="s" width="102.269" height="94.402" transform="translate(412.55 301.12)"/><rect class="g" width="19.36" height="5.5" transform="translate(419.704 382.351)"/><rect class="g" width="57.237" height="5.5" transform="translate(448.744 382.35)"/><rect class="g" width="19.36" height="5.5" transform="translate(419.704 364.158)"/><rect class="g" width="57.237" height="5.5" transform="translate(448.744 364.158)"/><rect class="g" width="19.36" height="5.5" transform="translate(419.704 345.966)"/><rect class="g" width="57.237" height="5.5" transform="translate(448.744 345.966)"/><rect class="g" width="19.36" height="5.5" transform="translate(419.704 327.774)"/><rect class="g" width="57.237" height="5.5" transform="translate(448.744 327.773)"/><rect class="g" width="19.36" height="5.5" transform="translate(419.704 309.582)"/><rect class="g" width="57.237" height="5.5" transform="translate(448.744 309.582)"/><path class="g" d="M512.907,193.716a2.845,2.845,0,1,1-2.231-2.236,2.854,2.854,0,0,1,2.231,2.236" transform="translate(-24.971 10.445)"/><path class="g" d="M538.03,187.842a2.845,2.845,0,1,1-2.231-2.236,2.854,2.854,0,0,1,2.231,2.236" transform="translate(-28.981 11.382)"/><path class="g" d="M530.268,183.31a2.844,2.844,0,1,1-2.231-2.235,2.854,2.854,0,0,1,2.231,2.235" transform="translate(-27.743 12.105)"/><path class="g" d="M523.283,176.048a2.845,2.845,0,1,1-2.231-2.236,2.854,2.854,0,0,1,2.231,2.236" transform="translate(-26.627 13.265)"/><path class="e" d="M535.88,187.274l.631,83.065,27.461,27.606v42.2L547.4,356.806" transform="translate(-29.537 11.107)"/><path class="e" d="M516.56,175.947v83.7l-24.3,24.432" transform="translate(-22.573 12.915)"/><line class="e" y2="97.75" transform="translate(499.894 195.755)"/><path class="e" d="M505.444,194.826v64.027l-27.461,27.606" transform="translate(-20.295 9.902)"/><path class="g" d="M480.242,303.278a2.842,2.842,0,1,1-2.842-2.856,2.849,2.849,0,0,1,2.842,2.856" transform="translate(-19.749 -6.953)"/><path class="g" d="M530.906,302.774a2.842,2.842,0,1,1-2.842-2.856,2.849,2.849,0,0,1,2.842,2.856" transform="translate(-27.836 -6.873)"/><path class="g" d="M551.272,389.365a2.842,2.842,0,1,1-2.842-2.856,2.849,2.849,0,0,1,2.842,2.856" transform="translate(-31.086 -20.694)"/><path class="g" d="M494.557,303.278a2.842,2.842,0,1,1-2.842-2.856,2.849,2.849,0,0,1,2.842,2.856" transform="translate(-22.034 -6.953)"/><g transform="translate(359.216 29.939)"><path class="aa" d="M407.374,76.917v38.575l32.6,14.569Z" transform="translate(-374.766 -76.917)"/><path class="ab" d="M407.374,76.917v38.575l32.6,14.569Z" transform="translate(-374.766 -76.917)"/><path class="ac" d="M412.058,76.917,379.45,130.06l32.608-14.569Z" transform="translate(-379.45 -76.917)"/><path class="ab" d="M412.058,76.917,379.45,130.06l32.608-14.569Z" transform="translate(-379.45 -76.917)"/><path class="ad" d="M407.374,146.551v26.211L440,127.625Z" transform="translate(-374.766 -68.411)"/><path class="ab" d="M407.374,146.551v26.211L440,127.625Z" transform="translate(-374.766 -68.411)"/><path class="ae" d="M412.058,172.762V146.547L379.45,127.625Z" transform="translate(-379.45 -68.411)"/><path class="ab" d="M412.058,172.762V146.547L379.45,127.625Z" transform="translate(-379.45 -68.411)"/><path class="ad" d="M407.374,143.448l32.6-18.93-32.6-14.56Z" transform="translate(-374.766 -71.375)"/><path class="ab" d="M407.374,143.448l32.6-18.93-32.6-14.56Z" transform="translate(-374.766 -71.375)"/><path class="af" d="M379.45,124.517l32.608,18.93V109.957Z" transform="translate(-379.45 -71.375)"/><path class="ab" d="M379.45,124.517l32.608,18.93V109.957Z" transform="translate(-379.45 -71.375)"/></g></g></g></g></svg>