<svg xmlns="http://www.w3.org/2000/svg" xmlns:xlink="http://www.w3.org/1999/xlink" width="614" height="410" viewBox="0 0 614 410"><defs><style>.a,.n{fill:none;}.b{clip-path:url(#a);}.c{fill:#97a5d0;}.d{fill:#8985a8;}.e{fill:#3f3d56;}.f{fill:#ccc;}.g{fill:#b6b3c5;}.h{fill:#d6d6e3;}.i{fill:#090814;}.j{fill:#fff;}.k{fill:#6c63ff;}.l{fill:#707070;}.m{fill:#a4fcf5;}.n{stroke:#634ab5;stroke-linejoin:round;stroke-width:1.069px;}.o{fill:#cfc3fb;}.p{fill:#cdaefb;}.q{fill:#80a4f7;}.r{fill:#82a9f9;}.s{fill:#e6e6e6;}.t{fill:#f2f2f2;}.u{fill:#ff6363;}.v{fill:#2f2e41;}.w{fill:#f5b29b;}.x{fill:#d0cde1;}.y{fill:#ffa515;}.z{fill:#ffc639;}</style><clipPath id="a"><rect class="a" width="614" height="297.596"/></clipPath></defs><g transform="translate(-36 -26)"><rect class="a" width="614" height="410" transform="translate(36 26)"/><g transform="translate(36 80.341)"><g class="b"><path class="c" d="M287.148,225.215c150.875,0,273.183,21.116,273.183,47.162s-122.308,47.162-273.183,47.162S13.965,298.424,13.965,272.377s122.308-47.162,273.183-47.162" transform="translate(-1.361 -21.943)"/><path class="d" d="M20.567,283.237c3.464,12.8,15.329,20.736,15.329,20.736s6.248-12.831,2.784-25.636S23.351,257.6,23.351,257.6s-6.248,12.831-2.784,25.636" transform="translate(-1.902 -25.098)"/><path class="e" d="M23.755,281.872c9.5,9.253,10.667,23.477,10.667,23.477s-14.251-.778-23.756-10.031S0,271.841,0,271.841s14.25.778,23.755,10.031" transform="translate(0 -26.486)"/><path class="d" d="M646.744,260.012c-5.107,18.877-22.6,30.568-22.6,30.568s-9.213-18.915-4.106-37.792,22.6-30.568,22.6-30.568,9.212,18.915,4.1,37.792" transform="translate(-60.261 -21.651)"/><path class="d" d="M598.156,260.012c5.107,18.877,22.6,30.568,22.6,30.568s9.213-18.915,4.106-37.792-22.6-30.568-22.6-30.568-9.212,18.915-4.1,37.792" transform="translate(-58.128 -21.651)"/><path class="e" d="M602.856,258c14.012,13.641,15.725,34.61,15.725,34.61s-21.008-1.147-35.021-14.788-15.724-34.61-15.724-34.61,21.007,1.147,35.02,14.788" transform="translate(-55.324 -23.696)"/><path class="e" d="M639.782,258c-14.012,13.641-15.725,34.61-15.725,34.61s21.008-1.147,35.021-14.788,15.724-34.61,15.724-34.61S653.794,244.36,639.782,258" transform="translate(-60.802 -23.696)"/><path class="f" d="M206.13,254.929c0,.326.179.588.4.588H406.278c.224,0,.4-.262.4-.588s-.178-.588-.4-.588H206.531c-.222,0-.4.262-.4.588" transform="translate(-20.083 -24.781)"/><rect class="g" width="7.132" height="1.258" transform="translate(251.187 228.213)"/><rect class="g" width="7.132" height="1.258" transform="translate(314.323 228.422)"/><path class="h" d="M323.57,190.8a10.276,10.276,0,0,1-20.277,0h-25.94v56.214h72.158V190.8Z" transform="translate(-27.023 -18.589)"/><rect class="i" width="72.156" height="1.957" transform="translate(250.541 223.968)"/><path class="i" d="M446.34,173.677H156.114a4.027,4.027,0,0,1-4.022-4.023V4.024A4.027,4.027,0,0,1,156.114,0H446.34a4.028,4.028,0,0,1,4.023,4.023V169.654a4.028,4.028,0,0,1-4.023,4.023" transform="translate(-14.818)"/><rect class="j" width="284.007" height="160.252" transform="translate(144.739 6.72)"/><path class="k" d="M313.79,68.712c.416.166,1.136.48,1.136-.112,0-.248-.2-.268-.4-.332a3.545,3.545,0,0,1-1.763-1.4,5.911,5.911,0,0,1-.933-3.571c0-2.961,4.08-3.5,4.08-6.458,0-1.135-.715-1.467-.715-1.786,0-.2.064-.2.268-.2.737,0,1.763,1.228,2.075,1.829a1.783,1.783,0,0,1,.221,1.024c0,.646-.064,1.311-.064,1.964,0,2.491,2.943,1.827,2.943.626,0-.553-.332-1.07-.332-1.607,0-.065,0-.112.066-.112.312,0,.866.714,1.024.932a5.485,5.485,0,0,1,.783,2.9c0,2.989-2.721,4.522-2.721,5.168,0,.091.268.715,1.116.179a9.161,9.161,0,0,0,4.9-8.287,10.111,10.111,0,0,0-2.963-7.621c-.357-.378-1.513-1.559-2.075-1.559-.757,0,.664,1.717.664,2.878a1.072,1.072,0,0,1-1.136,1.135c-1.071,0-1.337-2.343-1.466-3.072-.536-3.119-1.182-5.369-4.286-6.838-.959-.46-3.368-1.088-3.368-.2,0,.221.25.376.425.469a4.457,4.457,0,0,1,1.81,3.525c0,4.256-5.326,8.138-5.326,12.566-.017,3.718,2.593,6.7,6.026,7.954Z" transform="translate(-29.985 -4.261)"/><path class="l" d="M247.63,108.725a.414.414,0,0,0-.413.413v7.028a.413.413,0,0,0,.413.413h23.979a.413.413,0,0,0,.413-.413v-7.028a.413.413,0,0,0-.413-.413H247.63m0-.413h23.979a.827.827,0,0,1,.827.827v7.028a.827.827,0,0,1-.827.827H247.63a.827.827,0,0,1-.827-.827v-7.028a.827.827,0,0,1,.827-.827" transform="translate(-24.046 -10.553)"/><path class="l" d="M275.572,108.725a.414.414,0,0,0-.413.413v7.028a.413.413,0,0,0,.413.413h24.806a.413.413,0,0,0,.413-.413v-7.028a.413.413,0,0,0-.413-.413H275.572m0-.413h24.806a.827.827,0,0,1,.827.827v7.028a.827.827,0,0,1-.827.827H275.572a.827.827,0,0,1-.827-.827v-7.028a.827.827,0,0,1,.827-.827" transform="translate(-26.769 -10.553)"/><path class="l" d="M304.429,108.725a.414.414,0,0,0-.413.413v7.028a.413.413,0,0,0,.413.413h23.979a.413.413,0,0,0,.413-.413v-7.028a.413.413,0,0,0-.413-.413H304.429m0-.413h23.979a.827.827,0,0,1,.827.827v7.028a.827.827,0,0,1-.827.827H304.429a.827.827,0,0,1-.827-.827v-7.028a.827.827,0,0,1,.827-.827" transform="translate(-29.58 -10.553)"/><path class="l" d="M332.371,108.725a.414.414,0,0,0-.413.413v7.028a.413.413,0,0,0,.413.413h24.393a.413.413,0,0,0,.413-.413v-7.028a.413.413,0,0,0-.413-.413Zm0-.413h24.393a.827.827,0,0,1,.827.827v7.028a.827.827,0,0,1-.827.827H332.371a.827.827,0,0,1-.827-.827v-7.028a.827.827,0,0,1,.827-.827" transform="translate(-32.302 -10.553)"/><path class="l" d="M360.771,108.725a.414.414,0,0,0-.413.413v7.028a.413.413,0,0,0,.413.413H384.75a.413.413,0,0,0,.413-.413v-7.028a.413.413,0,0,0-.413-.413H360.771m0-.413H384.75a.827.827,0,0,1,.827.827v7.028a.827.827,0,0,1-.827.827H360.771a.827.827,0,0,1-.827-.827v-7.028a.827.827,0,0,1,.827-.827" transform="translate(-35.07 -10.553)"/><path class="l" d="M261.372,117.886a.414.414,0,0,0-.413.413v7.028a.413.413,0,0,0,.413.413h23.979a.413.413,0,0,0,.413-.413V118.3a.413.413,0,0,0-.413-.413H261.372m0-.413h23.979a.827.827,0,0,1,.827.827v7.028a.827.827,0,0,1-.827.827H261.372a.827.827,0,0,1-.827-.827V118.3a.827.827,0,0,1,.827-.827" transform="translate(-25.385 -11.445)"/><path class="l" d="M289.314,117.886a.414.414,0,0,0-.413.413v7.028a.413.413,0,0,0,.413.413h24.393a.413.413,0,0,0,.413-.413V118.3a.413.413,0,0,0-.413-.413Zm0-.413h24.393a.827.827,0,0,1,.827.827v7.028a.827.827,0,0,1-.827.827H289.314a.827.827,0,0,1-.827-.827V118.3a.827.827,0,0,1,.827-.827" transform="translate(-28.107 -11.445)"/><path class="l" d="M317.7,117.886a.412.412,0,0,0-.406.413v7.028a.411.411,0,0,0,.406.413h23.938a.41.41,0,0,0,.405-.413V118.3a.41.41,0,0,0-.405-.413Zm0-.413h23.938a.82.82,0,0,1,.811.827v7.028a.82.82,0,0,1-.811.827H317.7a.819.819,0,0,1-.811-.827V118.3a.819.819,0,0,1,.811-.827" transform="translate(-30.874 -11.445)"/><path class="l" d="M247.216,125.741h11.99v-7.855h-11.99Zm-.413-8.268h12.816v8.682H246.8Z" transform="translate(-24.046 -11.445)"/><path class="l" d="M345.655,117.886a.414.414,0,0,0-.413.413v7.028a.413.413,0,0,0,.413.413h25.22a.415.415,0,0,0,.414-.413V118.3a.415.415,0,0,0-.414-.413h-25.22m0-.413h25.22a.827.827,0,0,1,.827.827v7.028a.827.827,0,0,1-.827.827h-25.22a.827.827,0,0,1-.827-.827V118.3a.827.827,0,0,1,.827-.827" transform="translate(-33.597 -11.445)"/><path class="l" d="M374.971,117.886a.415.415,0,0,0-.413.413v7.028a.413.413,0,0,0,.413.413h11.162a.413.413,0,0,0,.413-.413V118.3a.413.413,0,0,0-.413-.413H374.971m0-.413h11.161a.827.827,0,0,1,.827.827v7.028a.827.827,0,0,1-.827.827H374.971a.827.827,0,0,1-.827-.827V118.3a.827.827,0,0,1,.827-.827" transform="translate(-36.453 -11.445)"/><path class="l" d="M261.372,99.563a.414.414,0,0,0-.413.413v7.028a.413.413,0,0,0,.413.413h23.979a.413.413,0,0,0,.413-.413V99.977a.413.413,0,0,0-.413-.413H261.372m0-.413h23.979a.827.827,0,0,1,.827.827v7.028a.827.827,0,0,1-.827.827H261.372a.827.827,0,0,1-.827-.827V99.977a.827.827,0,0,1,.827-.827" transform="translate(-25.385 -9.66)"/><path class="l" d="M289.314,99.563a.414.414,0,0,0-.413.413v7.028a.413.413,0,0,0,.413.413h24.393a.413.413,0,0,0,.413-.413V99.977a.413.413,0,0,0-.413-.413Zm0-.413h24.393a.827.827,0,0,1,.827.827v7.028a.827.827,0,0,1-.827.827H289.314a.827.827,0,0,1-.827-.827V99.977a.827.827,0,0,1,.827-.827" transform="translate(-28.107 -9.66)"/><path class="l" d="M317.7,99.563a.412.412,0,0,0-.406.413v7.028a.411.411,0,0,0,.406.413h23.938a.41.41,0,0,0,.405-.413V99.977a.41.41,0,0,0-.405-.413Zm0-.413h23.938a.82.82,0,0,1,.811.827v7.028a.82.82,0,0,1-.811.827H317.7a.819.819,0,0,1-.811-.827V99.977a.819.819,0,0,1,.811-.827" transform="translate(-30.874 -9.66)"/><path class="l" d="M247.216,107.419h11.99V99.564h-11.99ZM246.8,99.15h12.816v8.682H246.8Z" transform="translate(-24.046 -9.66)"/><path class="l" d="M345.655,99.563a.414.414,0,0,0-.413.413v7.028a.413.413,0,0,0,.413.413h25.22a.415.415,0,0,0,.414-.413V99.977a.415.415,0,0,0-.414-.413h-25.22m0-.413h25.22a.827.827,0,0,1,.827.827v7.028a.827.827,0,0,1-.827.827h-25.22a.827.827,0,0,1-.827-.827V99.977a.827.827,0,0,1,.827-.827" transform="translate(-33.597 -9.66)"/><path class="l" d="M374.971,99.563a.415.415,0,0,0-.413.413v7.028a.413.413,0,0,0,.413.413h11.162a.413.413,0,0,0,.413-.413V99.977a.413.413,0,0,0-.413-.413H374.971m0-.413h11.161a.827.827,0,0,1,.827.827v7.028a.827.827,0,0,1-.827.827H374.971a.827.827,0,0,1-.827-.827V99.977a.827.827,0,0,1,.827-.827" transform="translate(-36.453 -9.66)"/><path class="l" d="M247.63,90.4a.414.414,0,0,0-.413.413v7.028a.413.413,0,0,0,.413.413h23.979a.413.413,0,0,0,.413-.413V90.816a.413.413,0,0,0-.413-.413H247.63m0-.413h23.979a.827.827,0,0,1,.827.827v7.028a.827.827,0,0,1-.827.827H247.63a.827.827,0,0,1-.827-.827V90.816a.827.827,0,0,1,.827-.827" transform="translate(-24.046 -8.768)"/><path class="l" d="M275.572,90.4a.414.414,0,0,0-.413.413v7.028a.413.413,0,0,0,.413.413h24.806a.413.413,0,0,0,.413-.413V90.816a.413.413,0,0,0-.413-.413H275.572m0-.413h24.806a.827.827,0,0,1,.827.827v7.028a.827.827,0,0,1-.827.827H275.572a.827.827,0,0,1-.827-.827V90.816a.827.827,0,0,1,.827-.827" transform="translate(-26.769 -8.768)"/><path class="l" d="M304.429,90.4a.414.414,0,0,0-.413.413v7.028a.413.413,0,0,0,.413.413h23.979a.413.413,0,0,0,.413-.413V90.816a.413.413,0,0,0-.413-.413H304.429m0-.413h23.979a.827.827,0,0,1,.827.827v7.028a.827.827,0,0,1-.827.827H304.429a.827.827,0,0,1-.827-.827V90.816a.827.827,0,0,1,.827-.827" transform="translate(-29.58 -8.768)"/><path class="l" d="M332.371,90.4a.414.414,0,0,0-.413.413v7.028a.413.413,0,0,0,.413.413h24.393a.413.413,0,0,0,.413-.413V90.816a.413.413,0,0,0-.413-.413Zm0-.413h24.393a.827.827,0,0,1,.827.827v7.028a.827.827,0,0,1-.827.827H332.371a.827.827,0,0,1-.827-.827V90.816a.827.827,0,0,1,.827-.827" transform="translate(-32.302 -8.768)"/><path class="l" d="M360.771,90.4a.414.414,0,0,0-.413.413v7.028a.413.413,0,0,0,.413.413H384.75a.413.413,0,0,0,.413-.413V90.816a.413.413,0,0,0-.413-.413H360.771m0-.413H384.75a.827.827,0,0,1,.827.827v7.028a.827.827,0,0,1-.827.827H360.771a.827.827,0,0,1-.827-.827V90.816a.827.827,0,0,1,.827-.827" transform="translate(-35.07 -8.768)"/><path class="l" d="M247.63,72.08a.414.414,0,0,0-.413.413v7.028a.413.413,0,0,0,.413.413h23.979a.413.413,0,0,0,.413-.413V72.494a.413.413,0,0,0-.413-.413H247.63m0-.413h23.979a.827.827,0,0,1,.827.827v7.028a.827.827,0,0,1-.827.827H247.63a.827.827,0,0,1-.827-.827V72.494a.827.827,0,0,1,.827-.827" transform="translate(-24.046 -6.983)"/><path class="l" d="M275.572,72.08a.414.414,0,0,0-.413.413v7.028a.413.413,0,0,0,.413.413h24.806a.413.413,0,0,0,.413-.413V72.494a.413.413,0,0,0-.413-.413H275.572m0-.413h24.806a.827.827,0,0,1,.827.827v7.028a.827.827,0,0,1-.827.827H275.572a.827.827,0,0,1-.827-.827V72.494a.827.827,0,0,1,.827-.827" transform="translate(-26.769 -6.983)"/><path class="l" d="M304.429,72.08a.414.414,0,0,0-.413.413v7.028a.413.413,0,0,0,.413.413h23.979a.413.413,0,0,0,.413-.413V72.494a.413.413,0,0,0-.413-.413H304.429m0-.413h23.979a.827.827,0,0,1,.827.827v7.028a.827.827,0,0,1-.827.827H304.429a.827.827,0,0,1-.827-.827V72.494a.827.827,0,0,1,.827-.827" transform="translate(-29.58 -6.983)"/><path class="l" d="M332.371,72.08a.414.414,0,0,0-.413.413v7.028a.413.413,0,0,0,.413.413h24.393a.413.413,0,0,0,.413-.413V72.494a.413.413,0,0,0-.413-.413Zm0-.413h24.393a.827.827,0,0,1,.827.827v7.028a.827.827,0,0,1-.827.827H332.371a.827.827,0,0,1-.827-.827V72.494a.827.827,0,0,1,.827-.827" transform="translate(-32.302 -6.983)"/><path class="l" d="M360.771,72.08a.414.414,0,0,0-.413.413v7.028a.413.413,0,0,0,.413.413H384.75a.413.413,0,0,0,.413-.413V72.494a.413.413,0,0,0-.413-.413H360.771m0-.413H384.75a.827.827,0,0,1,.827.827v7.028a.827.827,0,0,1-.827.827H360.771a.827.827,0,0,1-.827-.827V72.494a.827.827,0,0,1,.827-.827" transform="translate(-35.07 -6.983)"/><path class="l" d="M261.372,81.241a.414.414,0,0,0-.413.413v7.028a.413.413,0,0,0,.413.413h23.979a.413.413,0,0,0,.413-.413V81.655a.413.413,0,0,0-.413-.413H261.372m0-.413h23.979a.827.827,0,0,1,.827.827v7.028a.827.827,0,0,1-.827.827H261.372a.827.827,0,0,1-.827-.827V81.655a.827.827,0,0,1,.827-.827" transform="translate(-25.385 -7.875)"/><path class="l" d="M289.314,81.241a.414.414,0,0,0-.413.413v7.028a.413.413,0,0,0,.413.413h24.393a.413.413,0,0,0,.413-.413V81.655a.413.413,0,0,0-.413-.413Zm0-.413h24.393a.827.827,0,0,1,.827.827v7.028a.827.827,0,0,1-.827.827H289.314a.827.827,0,0,1-.827-.827V81.655a.827.827,0,0,1,.827-.827" transform="translate(-28.107 -7.875)"/><path class="l" d="M317.7,81.241a.412.412,0,0,0-.406.413v7.028a.411.411,0,0,0,.406.413h23.938a.41.41,0,0,0,.405-.413V81.655a.41.41,0,0,0-.405-.413Zm0-.413h23.938a.82.82,0,0,1,.811.827v7.028a.82.82,0,0,1-.811.827H317.7a.819.819,0,0,1-.811-.827V81.655a.819.819,0,0,1,.811-.827" transform="translate(-30.874 -7.875)"/><path class="l" d="M247.216,89.1h11.99V81.241h-11.99Zm-.413-8.268h12.816V89.51H246.8Z" transform="translate(-24.046 -7.875)"/><path class="l" d="M345.655,81.241a.414.414,0,0,0-.413.413v7.028a.413.413,0,0,0,.413.413h25.22a.415.415,0,0,0,.414-.413V81.655a.415.415,0,0,0-.414-.413h-25.22m0-.413h25.22a.827.827,0,0,1,.827.827v7.028a.827.827,0,0,1-.827.827h-25.22a.827.827,0,0,1-.827-.827V81.655a.827.827,0,0,1,.827-.827" transform="translate(-33.597 -7.875)"/><path class="l" d="M374.971,81.241a.415.415,0,0,0-.413.413v7.028a.413.413,0,0,0,.413.413h11.162a.413.413,0,0,0,.413-.413V81.655a.413.413,0,0,0-.413-.413H374.971m0-.413h11.161a.827.827,0,0,1,.827.827v7.028a.827.827,0,0,1-.827.827H374.971a.827.827,0,0,1-.827-.827V81.655a.827.827,0,0,1,.827-.827" transform="translate(-36.453 -7.875)"/><path class="m" d="M409.624,71.96v31.859l26.928,12.033Z" transform="translate(-39.91 -7.011)"/><path class="n" d="M409.624,71.96v31.859l26.928,12.033Z" transform="translate(-39.91 -7.011)"/><path class="o" d="M406.717,71.96l-26.932,43.892,26.932-12.033Z" transform="translate(-37.003 -7.011)"/><path class="n" d="M406.717,71.96l-26.932,43.892,26.932-12.033Z" transform="translate(-37.003 -7.011)"/><path class="p" d="M409.624,141.776v21.648l26.945-37.28Z" transform="translate(-39.91 -12.29)"/><path class="n" d="M409.624,141.776v21.648l26.945-37.28Z" transform="translate(-39.91 -12.29)"/><path class="q" d="M406.717,163.424V141.772l-26.932-15.628Z" transform="translate(-37.003 -12.29)"/><path class="n" d="M406.717,163.424V141.772l-26.932-15.628Z" transform="translate(-37.003 -12.29)"/><path class="p" d="M409.624,134.926l26.928-15.635-26.928-12.025Z" transform="translate(-39.91 -10.451)"/><path class="n" d="M409.624,134.926l26.928-15.635-26.928-12.025Z" transform="translate(-39.91 -10.451)"/><path class="r" d="M379.785,119.291l26.932,15.635v-27.66Z" transform="translate(-37.003 -10.451)"/><path class="n" d="M379.785,119.291l26.932,15.635v-27.66Z" transform="translate(-37.003 -10.451)"/><path class="k" d="M135.468,192.05a30.25,30.25,0,0,1-1.908,10.626H105.094a4.891,4.891,0,0,1-4.882-4.882v-35.8a30.029,30.029,0,0,1,4.811-.385,30.444,30.444,0,0,1,30.445,30.442Z" transform="translate(-9.764 -15.745)"/><path class="s" d="M156.582,125.07h0V96.128a16.751,16.751,0,0,0-16.752-16.751H78.512A16.751,16.751,0,0,0,61.761,96.128V254.91A16.751,16.751,0,0,0,78.512,271.66h61.319a16.751,16.751,0,0,0,16.752-16.751V145.673a1.056,1.056,0,0,0,1.056-1.057V126.127a1.056,1.056,0,0,0-1.056-1.057" transform="translate(-6.017 -7.734)"/><path class="j" d="M153.516,96.714V255.265a12.5,12.5,0,0,1-12.372,12.5,1.157,1.157,0,0,1-.137.005H79.391a12.51,12.51,0,0,1-12.509-12.509V96.714A12.509,12.509,0,0,1,79.391,84.206h7.477a5.946,5.946,0,0,0,5.5,8.19H127.5a5.952,5.952,0,0,0,5.5-8.19h8.008a12.509,12.509,0,0,1,12.509,12.508" transform="translate(-6.516 -8.204)"/><path class="t" d="M141.3,273.719q0,2.464-.154,4.888a1.15,1.15,0,0,1-.136.005H79.39A12.51,12.51,0,0,1,66.881,266.1V195.446A78.363,78.363,0,0,1,141.3,273.719" transform="translate(-6.516 -19.042)"/><path class="s" d="M61.982,146.588a1.428,1.428,0,0,1-1.426-1.426v-9.7a1.426,1.426,0,0,1,2.852,0v9.7a1.428,1.428,0,0,1-1.426,1.426" transform="translate(-5.9 -13.06)"/><path class="u" d="M106.225,139.365h15.132a2.475,2.475,0,0,1,2.475,2.475V145.7a2.475,2.475,0,0,1-2.475,2.475H106.225a2.475,2.475,0,0,1-2.475-2.475V141.84a2.475,2.475,0,0,1,2.475-2.475" transform="translate(-10.108 -13.578)"/><path class="s" d="M83.051,158.88h56.964a2.475,2.475,0,0,1,2.475,2.475v3.858a2.475,2.475,0,0,1-2.475,2.475H83.051a2.475,2.475,0,0,1-2.475-2.475v-3.858a2.475,2.475,0,0,1,2.475-2.475" transform="translate(-7.851 -15.48)"/><path class="s" d="M83.051,178.4h56.964a2.475,2.475,0,0,1,2.475,2.475v3.858a2.475,2.475,0,0,1-2.475,2.475H83.051a2.475,2.475,0,0,1-2.475-2.475V180.87a2.475,2.475,0,0,1,2.475-2.475" transform="translate(-7.851 -17.381)"/><path class="f" d="M127.962,272.65a1.272,1.272,0,0,1-.922-2.206l.087-.347c-.011-.028-.023-.055-.034-.083a3.418,3.418,0,0,0-6.3.023c-1.031,2.483-2.344,4.97-2.667,7.6a10.125,10.125,0,0,0,.178,3.478,40.536,40.536,0,0,1-3.687-16.836,39.18,39.18,0,0,1,.242-4.365q.2-1.782.559-3.539a41,41,0,0,1,8.131-17.378,10.916,10.916,0,0,0,4.538-4.709,8.315,8.315,0,0,0,.757-2.275c-.221.029-.446.047-.666.061l-.21.011-.026,0a1.261,1.261,0,0,1-1.035-2.054l.286-.352c.145-.181.293-.359.439-.54a.673.673,0,0,0,.047-.054l.5-.616a3.64,3.64,0,0,0-1.2-1.155,4.2,4.2,0,0,0-5.179,1.21,6.584,6.584,0,0,0-1.018,5.516,14.616,14.616,0,0,0,2.021,4.507c-.09.116-.184.228-.275.344a41.263,41.263,0,0,0-4.307,6.824,17.152,17.152,0,0,0-1.024-7.969c-.98-2.365-2.818-4.357-4.436-6.4a3.521,3.521,0,0,0-6.272,1.729c0,.031-.006.06-.01.09q.36.2.706.432a1.726,1.726,0,0,1-.7,3.141l-.035.005a17.218,17.218,0,0,0,.453,2.569,17.684,17.684,0,0,0,8.805,11.084c.141.072.279.144.42.213a42.129,42.129,0,0,0-2.267,10.671,39.982,39.982,0,0,0,.029,6.451l-.011-.076a10.559,10.559,0,0,0-3.6-6.1c-2.774-2.278-6.692-3.117-9.684-4.949a1.982,1.982,0,0,0-3.035,1.928l.013.08a11.638,11.638,0,0,1,1.3.626q.36.2.706.431a1.727,1.727,0,0,1-.7,3.142l-.035.005-.073.011a17.2,17.2,0,0,0,3.163,4.952,17.7,17.7,0,0,0,12.836,5.632h0a42.171,42.171,0,0,0,2.829,8.259h10.106c.036-.112.069-.228.1-.34a11.48,11.48,0,0,1-2.8-.167c.75-.92,1.5-1.848,2.249-2.767a.679.679,0,0,0,.048-.054c.38-.471.764-.938,1.144-1.409h0A16.841,16.841,0,0,0,127.962,272.65Zm-11.573-22.765.005-.007-.005.014Zm-2.238,20.179-.087-.2c0-.141,0-.283,0-.427,0-.04-.007-.08-.007-.12.033.25.061.5.1.75Z" transform="translate(-9.503 -22.103)"/><path class="s" d="M61.666,125.734a1.428,1.428,0,0,1-1.426-1.426v-9.7a1.426,1.426,0,1,1,2.852,0v9.7a1.428,1.428,0,0,1-1.426,1.426" transform="translate(-5.869 -11.028)"/><path class="j" d="M103.844,85.858a1.428,1.428,0,0,1,1.426-1.426h9.7a1.426,1.426,0,1,1,0,2.852h-9.7a1.428,1.428,0,0,1-1.426-1.426" transform="translate(-10.118 -8.226)"/><path class="s" d="M61.982,164.914a1.428,1.428,0,0,1-1.426-1.426v-9.7a1.426,1.426,0,0,1,2.852,0v9.7a1.428,1.428,0,0,1-1.426,1.426" transform="translate(-5.9 -14.845)"/><path class="j" d="M122.017,84.432a1.426,1.426,0,1,1-1.427,1.426,1.425,1.425,0,0,1,1.427-1.426" transform="translate(-11.749 -8.226)"/><path class="v" d="M532.15,69.745c-4.5-7.6-13.394-7.953-13.394-7.953s-8.669-1.109-14.231,10.463c-5.183,10.788-12.338,21.2-1.152,23.727l2.02-6.288,1.252,6.757a43.874,43.874,0,0,0,4.786.082c11.979-.387,23.388.113,23.021-4.186-.488-5.714,2.024-15.29-2.3-22.6" transform="translate(-48.467 -6.018)"/><path class="w" d="M520.8,68.819a11.612,11.612,0,1,1-11.612,11.612A11.612,11.612,0,0,1,520.8,68.819" transform="translate(-49.61 -6.705)"/><path class="w" d="M516.6,89.952s5.278,12.316-1.759,14.778l7.037,23.223,11.963-.7L537,119.508l-.7-11.612-1.055-7.741s-7.389,1.76-6.685-11.26Z" transform="translate(-50.161 -8.661)"/><path class="w" d="M510.276,106.045s-11.612-1.056-10.556,7.389,2.111,10.2,2.111,10.2l1.055,12.668-6.333,3.87h-5.981s-18.3,4.222-9.148,8.8,12.315-3.518,12.315-3.518,16.89,0,17.945-2.815-1.407-36.594-1.407-36.594" transform="translate(-46.656 -10.328)"/><path class="w" d="M538.617,102.055s10.908-3.87,11.612,4.574.7,9.148.7,9.148l2.111,11.964s4.222,10.556,4.222,13.723,3.166,13.019,3.166,13.019,4.223,13.723-.351,13.371-5.278-14.778-5.278-14.778l-9.5-19-2.815-11.612Z" transform="translate(-52.478 -9.857)"/><path class="x" d="M515.085,104.072H512.27l-.352,14.778s-4.574,6.334,1.056,11.964l1.407,9.148,25.686-1.055,1.759-9.5s3.519-7.741-1.407-14.779L535.845,100.2h-2.463s5.7,21.033-6.333,21.463c-9.852.352-11.964-17.593-11.964-17.593" transform="translate(-49.706 -9.763)"/><path class="u" d="M512.59,142.229l-2.111,7.037S466.5,273.121,479.867,276.289s32.02,7.389,33.78,4.222S524.554,184.8,524.554,184.8s-1.408,96.763,3.166,96.763,34.835.7,36.594-3.871S548.48,150.673,538.277,147.859l-2.815-6.334Z" transform="translate(-46.507 -13.789)"/><path class="e" d="M541.4,138.407l-27.8,1.056s-1.268,9.5,0,9.5c.352,0,29.2,2.463,28.853-1.759s-1.056-8.8-1.056-8.8" transform="translate(-49.986 -13.485)"/><path class="v" d="M521.568,54.711a6.433,6.433,0,1,1-6.433,6.433,6.433,6.433,0,0,1,6.433-6.433" transform="translate(-50.19 -5.331)"/><path class="v" d="M514.238,59.269a6.432,6.432,0,0,1,5.755-6.4,6.433,6.433,0,1,0-1.361,12.793,6.354,6.354,0,0,0,1.361,0,6.431,6.431,0,0,1-5.755-6.4" transform="translate(-49.97 -5.148)"/><path class="v" d="M531.162,69.3l-8.789-4.6-12.139,1.885L507.723,77.67l6.252-.241,1.746-4.075v4.008l2.885-.111,1.674-6.488,1.046,6.906,10.255-.209Z" transform="translate(-49.468 -6.303)"/><rect class="e" width="3.348" height="50.215" transform="translate(429.029 103.503) rotate(-16.832)"/><path class="y" d="M486.56,99.458a13.695,13.695,0,0,1-26.216,7.933c-2.191-7.24,4.961-30.89,4.961-30.89s19.065,15.718,21.255,22.958" transform="translate(-44.811 -7.453)"/><path class="z" d="M483.053,104.8a9.323,9.323,0,1,1-17.847,5.4c-1.491-4.928,3.377-21.029,3.377-21.029s12.979,10.7,14.47,15.629" transform="translate(-45.298 -8.688)"/></g></g></g></svg>